<svg width="80" height="64" viewBox="0 0 80 64" fill="none" xmlns="http://www.w3.org/2000/svg">
<path fill-rule="evenodd" clip-rule="evenodd" d="M17.5552 1.03226C17.0968 1.03226 16.6445 1.14664 16.3109 1.4785C16.0335 1.75452 15.9071 2.11234 15.8724 2.4875L1.52588 19.1239V21.6175H16.1165V60.4C15.9398 60.6603 15.8621 60.9647 15.8621 61.2827C15.8621 61.7392 15.9772 62.1895 16.3109 62.5215C16.6445 62.8534 17.0968 62.9677 17.5552 62.9677C18.0137 62.9677 18.466 62.8534 18.7996 62.5215C19.1333 62.1895 19.2484 61.7392 19.2484 61.2827C19.2484 60.9647 19.1707 60.6603 18.9939 60.4V21.6175H20.6242C20.9163 21.7711 21.2254 21.8707 21.5422 21.8707C22.0006 21.8707 22.4529 21.7563 22.7865 21.4245C23.1203 21.0925 23.2354 20.6421 23.2354 20.1857C23.2354 19.7292 23.1203 19.2788 22.7865 18.9469C22.4529 18.615 22.0006 18.5006 21.5422 18.5006C21.2254 18.5006 20.9163 18.6003 20.6242 18.7538H18.9939V3.63101C19.1482 3.34043 19.2484 3.03275 19.2484 2.7173C19.2484 2.26081 19.1333 1.81048 18.7996 1.4785C18.466 1.14664 18.0137 1.03226 17.5552 1.03226ZM16.1165 18.7538H5.44495L16.1165 6.4879V18.7538Z" fill="black"/>
<path fill-rule="evenodd" clip-rule="evenodd" d="M40.4678 1.03226C38.1296 1.03226 36.2103 1.52572 34.7748 2.58037C33.4371 3.54869 32.4632 4.82253 31.858 6.38787L31.8544 6.39719L31.8512 6.40662C31.3195 7.93455 31.0551 9.54702 31.0551 11.2405V53.0127C31.0551 54.6523 31.3202 56.2364 31.8512 57.7622L31.8557 57.7753L31.8609 57.7882C32.4683 59.2987 33.4433 60.5408 34.7765 61.5054L34.7866 61.5124C36.2203 62.5046 38.1348 62.9677 40.4678 62.9677C42.7431 62.9677 44.6045 62.505 45.9843 61.5089C47.3731 60.5465 48.3803 59.3042 48.9899 57.7882L48.9927 57.7809C49.5844 56.2504 49.8804 54.6598 49.8804 53.0127V11.2405C49.8804 9.53976 49.5854 7.92076 48.9927 6.38787C48.3862 4.8191 47.3822 3.54617 45.9913 2.58034C44.6105 1.52424 42.7459 1.03226 40.4678 1.03226ZM34.4934 7.72115C34.9081 6.59054 35.575 5.67412 36.4976 4.95851C37.4396 4.27052 38.7436 3.89601 40.4678 3.89601C42.1982 3.89601 43.4673 4.27309 44.3471 4.95378L44.3531 4.95848L44.3593 4.96301C45.3359 5.67888 45.9952 6.58931 46.3523 7.70589L46.3573 7.72158L46.3632 7.73696C46.7894 8.84991 47.0031 10.0165 47.0031 11.2405V53.0127C47.0031 54.8749 46.5235 56.5355 45.5701 58.0109C44.7043 59.3507 43.0779 60.104 40.4678 60.104C37.8577 60.104 36.2313 59.3507 35.3655 58.0109C34.4121 56.5355 33.9325 54.8749 33.9325 53.0127V11.2405C33.9325 10.0101 34.1201 8.83798 34.4934 7.72115Z" fill="black"/>
<path fill-rule="evenodd" clip-rule="evenodd" d="M72.7938 1.03226C72.3353 1.03226 71.883 1.14664 71.5495 1.4785C71.272 1.75452 71.1456 2.11234 71.1109 2.4875L56.7644 19.1239V21.6175H71.3551V60.4C71.1783 60.6603 71.1006 60.9647 71.1006 61.2827C71.1006 61.7392 71.2157 62.1895 71.5495 62.5215C71.883 62.8534 72.3353 62.9677 72.7938 62.9677C73.2522 62.9677 73.7045 62.8534 74.0381 62.5215C74.3718 62.1895 74.487 61.7392 74.487 61.2827C74.487 60.9647 74.4092 60.6603 74.2325 60.4V21.6175H75.8627C76.1548 21.7711 76.464 21.8707 76.7808 21.8707C77.2392 21.8707 77.6915 21.7563 78.0251 21.4245C78.3588 21.0925 78.4739 20.6421 78.4739 20.1857C78.4739 19.7292 78.3588 19.2788 78.0251 18.9469C77.6915 18.615 77.2392 18.5006 76.7808 18.5006C76.464 18.5006 76.1548 18.6003 75.8627 18.7538H74.2325V3.631C74.3867 3.34043 74.487 3.03275 74.487 2.7173C74.487 2.26081 74.3718 1.81048 74.0381 1.4785C73.7045 1.14664 73.2522 1.03226 72.7938 1.03226ZM71.3551 18.7538H60.6835L71.3551 6.4879V18.7538Z" fill="black"/>
</svg>
