<svg width="157" height="156" viewBox="0 0 157 156" fill="none" xmlns="http://www.w3.org/2000/svg">
<path fill-rule="evenodd" clip-rule="evenodd" d="M116.032 56.1393V55.5837C115.834 52.4399 116.344 52.77 114.589 52.77C113.938 50.8097 112.166 49.3999 110.087 49.3999H107.615C105.542 49.3999 103.775 50.8009 103.119 52.7517H100.772C100.116 50.8009 98.3485 49.3999 96.2761 49.3999H93.804C91.7251 49.3999 89.9529 50.8097 89.3018 52.77C86.1939 53.0183 83.737 55.7637 83.737 59.103V59.5415C81.8867 60.2332 80.5579 62.097 80.5579 64.2819V66.8883C80.5579 69.0732 81.8867 70.937 83.737 71.6287V74.1026C81.8867 74.7942 80.5579 76.658 80.5579 78.8429V81.4493C80.5579 83.6342 81.8867 85.498 83.737 86.1897V88.6635C81.8867 89.3552 80.5579 91.219 80.5579 93.4039V96.0103C80.5579 98.1803 81.8688 100.034 83.6994 100.736C83.4778 102.159 82.3032 103.248 80.8919 103.248H57.5322V106.6H80.892C84.0511 106.6 86.65 104.023 86.8973 100.758C88.7575 100.072 90.0955 98.2028 90.0955 96.0103V93.4039C90.0955 91.219 88.7668 89.3552 86.9164 88.6635V86.1897C88.7668 85.498 90.0955 83.6342 90.0955 81.4493V78.8429C90.0955 76.658 88.7668 74.7942 86.9164 74.1026V71.6287C88.7668 70.937 90.0955 69.0732 90.0955 66.8883V64.2819C90.0955 62.097 88.7668 60.2332 86.9164 59.5415V59.103C86.9164 57.6071 87.9604 56.3634 89.3206 56.1393C89.9862 58.0714 91.7448 59.4552 93.8045 59.4552H96.2766C98.3488 59.4552 100.117 58.0542 100.773 56.1034H103.119C103.775 58.0542 105.543 59.4552 107.615 59.4552H110.087C112.147 59.4552 113.906 58.0713 114.571 56.1393C115.8 56.3417 115.856 54.8388 116.032 56.1393ZM85.3266 97.6863C84.4499 97.6863 83.7369 96.9344 83.7369 96.0103V93.4039C83.7369 92.4798 84.4499 91.7279 85.3266 91.7279C86.2032 91.7279 86.9162 92.4798 86.9162 93.4039V96.0103C86.9162 96.9344 86.2032 97.6863 85.3266 97.6863ZM85.3266 83.1253C84.4499 83.1253 83.7369 82.3734 83.7369 81.4493V78.8429C83.7369 77.9188 84.4499 77.1669 85.3266 77.1669C86.2032 77.1669 86.9162 77.9188 86.9162 78.8429V81.4493C86.9162 82.3734 86.2032 83.1253 85.3266 83.1253ZM85.3266 68.5642C84.4499 68.5642 83.7369 67.8125 83.7369 66.8883V64.2819C83.7369 63.3578 84.4499 62.6059 85.3266 62.6059C86.2032 62.6059 86.9162 63.3578 86.9162 64.2819V66.8883C86.9162 67.8125 86.2032 68.5642 85.3266 68.5642ZM93.8041 52.7516H96.2762C97.1528 52.7516 97.8658 53.5035 97.8658 54.4276C97.8658 55.3517 97.1527 56.1036 96.2762 56.1036H93.8041C92.9275 56.1036 92.2145 55.3517 92.2145 54.4276C92.2145 53.5035 92.9276 52.7516 93.8041 52.7516ZM107.615 52.7516H110.087C110.964 52.7516 111.677 53.5035 111.677 54.4276C111.677 55.3517 110.964 56.1036 110.087 56.1036H107.615C106.738 56.1036 106.025 55.3517 106.025 54.4276C106.025 53.5035 106.738 52.7516 107.615 52.7516Z" fill="#13151A"/>
<path d="M134.604 33.2542L111.328 60.7623L88.0518 33.2542L92.2838 20.5581H130.372L134.604 33.2542Z" fill="#A898F5"/>
<path d="M131.135 19.5H91.5209L86.8604 33.4837L111.328 62.4L135.795 33.4837L131.135 19.5ZM102.244 32.1961L111.328 23.112L120.412 32.1961H102.244ZM120.367 34.3121L111.328 57.8135L102.288 34.3121H120.367ZM112.824 21.616H128.295L121.781 30.5731L112.824 21.616ZM100.876 30.5731L94.3606 21.616H109.832L100.876 30.5731ZM99.44 32.1961H89.5202L92.6381 22.8422L99.44 32.1961ZM100.021 34.3121L108.095 55.3029L90.3327 34.3121H100.021ZM122.635 34.3121H132.323L114.561 55.3029L122.635 34.3121ZM123.216 32.1961L130.017 22.8422L133.135 32.1961H123.216Z" fill="#13151A"/>
<path d="M58.3172 35.9891C58.3172 40.7878 54.4742 44.6779 49.7338 44.6779C44.9933 44.6779 41.1504 40.7878 41.1504 35.9891C41.1504 31.1904 44.9933 27.3003 49.7338 27.3003C54.4742 27.3003 58.3172 31.1904 58.3172 35.9891Z" fill="#13151A"/>
<path fill-rule="evenodd" clip-rule="evenodd" d="M68.5309 46.5821L78.3685 56.2013C79.7254 57.5281 80.0252 59.6152 79.0979 61.2784L70.8079 76.14C70.0466 77.5047 68.6429 78.2717 67.1979 78.2717C66.821 78.2717 66.4416 78.2175 66.0699 78.1102L60.6773 86.2086V123.669C60.6773 126.448 58.4664 128.7 55.7216 128.7C52.9769 128.7 50.7518 126.448 50.7518 123.669V83.458H48.606V123.669C48.606 126.448 46.381 128.7 43.6363 128.7C40.8915 128.7 38.6653 126.448 38.6653 123.669V86.2082L33.3961 78.1096C33.0244 78.2169 32.645 78.2711 32.2683 78.2711C30.8231 78.2713 29.4196 77.5043 28.6582 76.1394L20.3683 61.2778C19.4408 59.615 19.7405 57.5279 21.0973 56.2011L30.9351 46.5819C33.1117 44.4537 35.9771 43.2816 39.0033 43.2816H41.2752C43.2816 45.5958 46.2215 47.0609 49.4947 47.0609C52.7682 47.0609 55.7081 45.5958 57.7142 43.2816H60.4625C63.4889 43.2816 66.3543 44.4539 68.5309 46.5821ZM34.9689 77.2531H38.6649V51.6846C37.9237 51.7603 37.2314 52.0828 36.6892 52.613L29.1555 59.9792L35.8705 72.0172C36.8583 73.788 36.4355 75.9754 34.9689 77.2531ZM64.4969 77.2531C63.0303 75.9752 62.6075 73.788 63.5953 72.0172L70.31 59.9792L62.7762 52.613C62.1855 52.0353 61.4934 51.7073 60.6771 51.6733V77.2531H64.4969Z" fill="#13151A"/>
<path d="M49.7324 104C49.7324 103.282 50.3145 102.7 51.0324 102.7H60.1324C60.8504 102.7 61.4324 103.282 61.4324 104V105.95C61.4324 106.668 60.8504 107.25 60.1324 107.25H51.0324C50.3145 107.25 49.7324 106.668 49.7324 105.95V104Z" fill="#6D7382"/>
</svg>
