<svg width="156" height="156" viewBox="0 0 156 156" fill="none" xmlns="http://www.w3.org/2000/svg">
<path d="M121.079 121.932H110.186L107.765 110.232H66.6136L64.1929 121.932H55.7205L53.2998 133.632H123.5L121.079 121.932Z" fill="#A898F5"/>
<path d="M123.83 68.3591L111.371 55.8999H65.4269L52.9678 68.3591L88.3991 105.103L123.83 68.3591ZM119.147 69.6228L90.6884 99.1359L100.525 69.6228H113.35V67.1278H102.639L110.855 58.9115L119.071 67.1278H115.845V69.6228H119.147ZM97.8966 69.6228L88.3991 98.1154L78.9016 69.6228H97.8966ZM80.1828 67.1278L88.3991 58.9115L96.6154 67.1278H80.1828ZM99.627 66.6113L91.4107 58.395H107.843L99.627 66.6113ZM77.1713 66.6113L68.955 58.395H85.3876L77.1713 66.6113ZM74.1597 67.1278H57.7271L65.9434 58.9115L74.1597 67.1278ZM76.273 69.6228L86.1111 99.1359L57.651 69.6228H76.273Z" fill="#13151A"/>
<path d="M123.104 118.277H111.876L109.381 105.802H81.9351H80.9134H64.9212L62.4261 118.277H53.6933L50.6992 133.248H70.9331H73.7026H126.099L123.104 118.277ZM66.9646 108.297H79.8904L81.8864 118.277H70.7072H64.9686L66.9646 108.297ZM84.9304 120.772H93.6146L95.6106 130.753H78.6927L80.6888 120.772H83.4084H84.9304ZM53.742 130.753L55.738 120.772H61.9271H68.6638L70.6598 130.753H53.742ZM73.2036 130.753L71.2075 120.772H78.1451L76.149 130.753H73.2036ZM98.1544 130.753L96.1583 120.772H104.617V118.277H84.4314L82.4354 108.297H107.337L109.334 118.277H107.112V120.772H110.854H112.376H121.06L123.056 130.753H98.1544Z" fill="#13151A"/>
<path d="M61.0114 35.508C65.5648 34.5886 70.0073 37.5385 70.9267 42.0919L73.7835 56.2407C74.3753 59.1719 73.7204 62.0574 72.1921 64.371C70.662 66.6753 68.2475 68.4003 65.3163 68.9922C61.6477 69.7329 57.8539 68.5227 55.2892 65.798L47.0655 65.0388L44.4265 75.1073C43.9724 76.849 42.5622 78.1794 40.7924 78.5367C37.3635 79.2291 34.3978 76.0865 35.2879 72.7027L38.6484 59.8887C39.1466 57.9846 40.3847 56.3723 42.0943 55.3844C44.8208 53.8266 46.3132 53.9939 49.8324 53.9939L56.0689 53.5531L54.4274 45.4233C53.4988 40.8717 56.4487 36.4292 61.0114 35.508Z" fill="#13151A"/>
<path d="M49.6237 39.3514C53.9508 38.4778 56.7503 34.2617 55.8766 29.9347C55.0029 25.6076 50.7869 22.8081 46.4598 23.6817C42.1328 24.5554 39.3333 28.7715 40.2069 33.0985C41.0806 37.4256 45.2966 40.2251 49.6237 39.3514Z" fill="#13151A"/>
<path d="M42.2982 49.4055C43.2975 49.3847 43.9322 48.8201 43.9035 47.4464C43.8749 46.0726 43.4232 46.5027 44.0526 40.3001C41.4424 45.5866 40.4084 45.5821 40.4371 46.9559C40.4657 48.3296 41.299 49.4264 42.2982 49.4055Z" fill="#13151A"/>
</svg>
