<svg width="157" height="156" viewBox="0 0 157 156" fill="none" xmlns="http://www.w3.org/2000/svg">
<path fill-rule="evenodd" clip-rule="evenodd" d="M73.6945 99.816L73.6774 101.93C73.6729 102.828 73.441 103.71 73.0033 104.494L60.9794 126.018C60.2786 127.235 59.1264 128.127 57.7726 128.5C56.4188 128.874 54.9723 128.699 53.7467 128.013C52.5211 127.327 51.615 126.186 51.2249 124.837C50.8348 123.488 50.992 122.039 51.6625 120.805L62.7817 100.902C62.9436 100.62 63.0283 100.3 63.0271 99.9745L63.1684 82.4208L73.4048 98.9016L73.6945 99.816ZM86.2653 47.4392C84.492 46.3144 82.3457 45.9371 80.2951 46.3896C78.2445 46.8422 76.4564 48.0879 75.3212 49.8545L63.1371 68.9396C62.1948 70.4208 61.7675 72.1715 61.9216 73.9202C62.0757 75.669 62.8025 77.318 63.9893 78.6116L75.8829 97.7605L82.3421 118.155C82.5511 118.822 82.8894 119.441 83.3377 119.978C83.7861 120.514 84.3356 120.957 84.9551 121.281C85.5745 121.604 86.2516 121.803 86.9479 121.865C87.6441 121.928 88.3457 121.852 89.0128 121.643C89.6798 121.434 90.2991 121.096 90.8354 120.647C91.3716 120.199 91.8143 119.649 92.1382 119.03C92.4621 118.411 92.6608 117.733 92.723 117.037C92.7852 116.341 92.7096 115.639 92.5006 114.972L85.93 94.2261C85.7964 93.6697 85.574 93.1385 85.2713 92.6529L76.1641 77.9906L83.9285 65.8283C83.9696 65.7638 84.029 65.713 84.099 65.6823C84.169 65.6516 84.2466 65.6423 84.3219 65.6556C84.3972 65.669 84.4668 65.7044 84.522 65.7573C84.5772 65.8102 84.6155 65.8783 84.632 65.953L88.082 81.5855C88.3042 82.5921 88.9171 83.4693 89.7861 84.0241C90.655 84.5788 91.7087 84.7656 92.7154 84.5435C93.722 84.3213 94.5992 83.7083 95.154 82.8394C95.7087 81.9705 95.8955 80.9167 95.6734 79.9101L89.911 53.8C89.3549 51.2805 88.4601 48.8407 86.2653 47.4392ZM98.3429 29.9607C99.8628 30.9309 101.061 32.3301 101.785 33.9812C102.51 35.6323 102.729 37.4613 102.414 39.2367C102.099 41.0122 101.265 42.6544 100.017 43.9557C98.7687 45.257 97.1627 46.159 95.4019 46.5476C93.6411 46.9362 91.8047 46.794 90.1248 46.1388C88.4449 45.4837 86.9969 44.3451 85.9641 42.8671C84.9313 41.3891 84.3599 39.638 84.3223 37.8353C84.2847 36.0325 84.7825 34.2591 85.7527 32.7393C87.0539 30.7013 89.1113 29.2637 91.4724 28.7426C93.8335 28.2215 96.3049 28.6597 98.3429 29.9607Z" fill="#13151A"/>
<g clip-path="url(#clip0_2714_6581)">
<path d="M49.9033 75.3769L48.0986 73.5722L46.8886 74.7822C46.6031 75.0677 46.1644 75.0919 45.9087 74.8361L44.7717 73.6992C44.5165 73.4439 44.5406 73.0052 44.8261 72.7197L46.0361 71.5097L44.2314 69.7051L39.033 70.2629L38.7702 80.8382L49.3454 80.5754L49.9033 75.3769Z" fill="#A898F5"/>
<path d="M49.9033 75.3769L48.0986 73.5722L46.8886 74.7822C46.6031 75.0677 46.1644 75.0919 45.9087 74.8361L44.7717 73.6992C44.5165 73.4439 44.5406 73.0052 44.8261 72.7197L46.0361 71.5097L44.2314 69.7051L39.033 70.2629L38.7702 80.8382L49.3454 80.5754L49.9033 75.3769Z" fill="#A898F5"/>
<path d="M75.885 53.005L77.4037 55.5783L77.4842 55.5298L77.5728 55.433C79.62 53.1919 79.7163 49.9287 77.792 48.0044C75.8017 46.0141 72.3746 46.2031 70.1532 48.4245C67.9318 50.6458 67.7428 54.0729 69.7331 56.0632C70.8324 57.1626 72.4192 57.628 74.0488 57.3626L75.885 53.005ZM72.6113 53.1851C72.0415 52.6153 72.0952 51.6386 72.7313 51.0026C73.3674 50.3665 74.344 50.3128 74.9138 50.8825C75.4836 51.4523 75.4299 52.429 74.7938 53.0651C74.1577 53.7011 73.181 53.7548 72.6113 53.1851Z" fill="#A898F5"/>
<path d="M76.8676 74.7101C78.4587 73.1191 78.8283 70.8097 77.9134 69.097C78.4501 68.8428 78.9595 68.4933 79.4102 68.0426C81.0629 66.3899 81.4009 63.9615 80.3477 62.2325L82.2116 62.13L76.0689 51.7253C76.0566 51.1972 75.8723 50.6895 75.4897 50.3069C74.6369 49.4541 73.1681 49.5348 72.216 50.4869C71.2639 51.439 71.1831 52.9079 72.0359 53.7607C72.7057 54.4305 73.7531 54.5165 74.6341 54.0644L70.9754 62.7484L72.561 62.6612C71.5476 64.1645 71.4071 66.0272 72.1769 67.4694C71.6402 67.7224 71.1309 68.072 70.6802 68.5227C70.0637 69.1392 69.6327 69.8641 69.386 70.6202C67.9118 70.3743 66.2659 70.8744 65.0438 72.0965C64.4273 72.713 63.9964 73.4379 63.7497 74.194C62.2754 73.9481 60.6296 74.4483 59.4075 75.6703C58.3129 74.5757 56.7122 74.2541 55.2019 74.6641C55.0371 73.9306 54.6835 73.2488 54.1313 72.6966C53.1196 71.685 51.675 71.3352 50.2689 71.6111C50.243 71.2916 50.1199 70.9877 49.8863 70.7541L48.855 69.7229C48.6215 69.4893 48.3176 69.3662 47.9981 69.3403C48.274 67.9342 47.9242 66.4896 46.9126 65.4779C46.3604 64.9257 45.6786 64.572 44.9451 64.4073C45.3551 62.897 45.0335 61.2963 43.9389 60.2017C45.1609 58.9796 45.6611 57.3338 45.4152 55.8595C46.1713 55.6128 46.8962 55.1819 47.5127 54.5653C48.7348 53.3433 49.2349 51.6974 48.989 50.2232C49.7451 49.9765 50.47 49.5455 51.0865 48.929C51.5372 48.4783 51.8867 47.969 52.1409 47.4322C53.4235 48.1173 55.0379 48.0796 56.4375 47.3493L56.201 49.2554L63.6983 46.0264L68.5444 46.9697C68.9444 47.0472 69.371 46.9558 69.7456 46.7121C70.1213 46.4674 70.4039 46.0868 70.5205 45.6681L70.8622 44.4395C71.0906 43.6202 70.6533 42.8571 69.8671 42.7018L64.8132 41.7188L57.682 37.3103L57.4357 39.2974C55.7042 38.1992 53.2383 38.5273 51.5666 40.199C51.1159 40.6497 50.7664 41.1591 50.5122 41.6958C48.7995 40.7809 46.4901 41.1505 44.8991 42.7416C43.677 43.9636 43.1769 45.6095 43.4227 47.0837C42.6666 47.3304 41.9417 47.7614 41.3252 48.3779C40.1032 49.6 39.603 51.2458 39.8489 52.72C39.0928 52.9667 38.3679 53.3977 37.7514 54.0142C35.8466 55.919 35.6851 58.8555 37.3913 60.5617C35.4866 62.4665 35.3251 65.4031 37.0313 67.1093C37.584 67.662 38.2668 68.0156 39.0014 68.1803C38.7755 69.0239 38.779 69.9 39.023 70.7048L39.0337 70.263L40.4986 70.1057C40.3207 69.5134 40.346 68.8652 40.5479 68.2508C41.63 68.1184 42.7113 67.6167 43.5788 66.7492C43.8476 66.4804 44.078 66.1892 44.2769 65.8861C44.8312 65.9753 45.3504 66.2182 45.7613 66.6292C46.8988 67.7666 46.7911 69.7243 45.5213 70.9942L44.37 72.1455C43.7351 72.7804 43.6812 73.7592 44.25 74.328L41.1562 71.2342L40.005 72.3855L47.2237 79.6042L48.375 78.4529L45.2812 75.3592C45.85 75.9279 46.8288 75.8741 47.4637 75.2392L48.615 74.0879C49.8848 72.8181 51.8426 72.7104 52.98 73.8479C53.391 74.2588 53.6339 74.778 53.7231 75.3323C53.42 75.5312 53.1288 75.7616 52.86 76.0304C51.9925 76.8979 51.4913 77.9797 51.3584 79.0613C50.7434 79.2638 50.0953 79.288 49.5034 79.1106L49.3462 80.5755L48.9044 80.5861C49.7092 80.8302 50.5848 80.8332 51.4289 80.6078C51.5936 81.3423 51.9472 82.0252 52.4999 82.5779C54.2061 84.2841 57.1427 84.1226 59.0475 82.2179C60.7537 83.9241 63.6902 83.7626 65.595 81.8578C66.2115 81.2413 66.6425 80.5164 66.8891 79.7603C68.3634 80.0062 70.0092 79.506 71.2313 78.284C71.8478 77.6675 72.2788 76.9426 72.5255 76.1865C73.9997 76.4323 75.6456 75.9322 76.8676 74.7101ZM69.3762 44.1807L68.9968 45.451L64.6437 44.6036L64.9903 43.3557L69.3762 44.1807ZM63.5714 42.8554L63.0627 44.6862L58.0359 46.8513L58.8902 39.9611L63.5714 42.8554ZM56.9629 40.9902C57.0495 41.0768 57.1174 41.1781 57.1909 41.2747L56.6807 45.3902C55.4935 46.5412 53.7436 46.6886 52.5996 45.7876C52.7101 44.6696 52.4257 43.5598 51.7254 42.6926C51.8854 42.1664 52.1696 41.6585 52.5979 41.2302C53.8677 39.9604 55.8254 39.8527 56.9629 40.9902ZM50.0535 43.3404C49.9431 44.4584 50.2274 45.5683 50.9277 46.4355C50.7677 46.9616 50.4835 47.4695 50.0553 47.8978C49.5965 48.3566 49.0474 48.6582 48.4804 48.8096C48.3132 48.5261 48.1136 48.2586 47.8728 48.0178C47.0968 47.2418 46.0654 46.8563 44.9929 46.8418C44.7545 45.8159 45.0663 44.6368 45.9303 43.7728C47.1173 42.5859 48.8965 42.4287 50.0535 43.3404ZM43.9314 48.4973C44.0986 48.7808 44.2982 49.0483 44.539 49.2891C45.315 50.0651 46.3464 50.4506 47.4189 50.4651C47.6573 51.491 47.3455 52.6701 46.4815 53.5341C46.0227 53.9929 45.4735 54.2945 44.9065 54.4459C44.7394 54.1625 44.5397 53.8949 44.2989 53.6541C43.5229 52.8781 42.4915 52.4926 41.4191 52.4781C41.1806 51.4522 41.4924 50.2732 42.3565 49.4091C42.8153 48.9503 43.3644 48.6487 43.9314 48.4973ZM38.5426 59.4105C37.4051 58.273 37.5128 56.3153 38.7827 55.0454C39.2414 54.5867 39.7906 54.285 40.3576 54.1336C40.5248 54.4171 40.7244 54.6846 40.9652 54.9254C41.7412 55.7014 42.7726 56.087 43.845 56.1014C44.0835 57.1273 43.7717 58.3064 42.9076 59.1704C42.8357 59.2424 42.7549 59.2963 42.679 59.3609C41.4691 58.8486 40.0243 58.9281 38.7505 59.5769C38.6824 59.5203 38.6065 59.4744 38.5426 59.4105ZM38.1825 65.958C37.0451 64.8205 37.1527 62.8628 38.4226 61.593C38.4945 61.521 38.5753 61.4671 38.6512 61.4025C39.8611 61.9148 41.3059 61.8353 42.5797 61.1865C42.6479 61.2431 42.7237 61.289 42.7876 61.3529C43.5616 62.1269 43.7452 63.2787 43.3921 64.3371C42.3116 64.47 41.2314 64.9716 40.365 65.838C40.0974 66.1056 39.874 66.3992 39.675 66.7033C39.118 66.6148 38.5955 66.371 38.1825 65.958ZM45.4012 73.1767L47.7038 70.8742L48.735 71.9054L47.5923 73.0491C47.59 73.0514 47.5866 73.0538 47.5838 73.0567L46.4335 74.209L45.4012 73.1767ZM73.1872 52.6094C72.9031 52.3253 72.9295 51.8359 73.2472 51.5182C73.565 51.2004 74.0544 51.1741 74.3385 51.4582C74.6226 51.7423 74.5962 52.2317 74.2785 52.5494C73.9607 52.8672 73.4713 52.8936 73.1872 52.6094ZM75.964 54.73L79.512 60.7406L73.2875 61.0829L75.964 54.73ZM74.254 62.8864C74.3824 62.758 74.5285 62.652 74.6732 62.5445L78.235 62.3487C78.3687 62.4398 78.5035 62.5308 78.619 62.6463C79.7565 63.7838 79.6488 65.7415 78.379 67.0113C77.9507 67.4396 77.4428 67.7238 76.9161 67.8844C76.0489 67.1841 74.9396 66.8991 73.821 67.0101C72.9099 65.8526 73.067 64.0733 74.254 62.8864ZM58.0162 81.1866C56.7464 82.4565 54.7887 82.5641 53.6512 81.4267C53.2382 81.0136 52.9944 80.4912 52.9059 79.9342C53.21 79.7352 53.5035 79.5118 53.7712 79.2441C54.6375 78.3778 55.1392 77.2976 55.2721 76.2171C56.3305 75.864 57.4823 76.0476 58.2563 76.8216C58.3202 76.8855 58.3661 76.9613 58.4227 77.0306C57.7738 78.3043 57.6944 79.7492 58.2066 80.9591C58.1421 81.0339 58.0882 81.1147 58.0162 81.1866ZM64.5638 80.8265C63.2939 82.0964 61.3362 82.2041 60.1987 81.0666C60.1348 81.0027 60.0889 80.9268 60.0323 80.8576C60.6812 79.5838 60.7606 78.139 60.2484 76.9291C60.3129 76.8543 60.3668 76.7735 60.4388 76.7016C61.3028 75.8375 62.4819 75.5257 63.5078 75.7642C63.5222 76.8366 63.9078 77.868 64.6838 78.644C64.9246 78.8848 65.1921 79.0844 65.4756 79.2516C65.3242 79.8186 65.0225 80.3678 64.5638 80.8265ZM70.2001 77.2527C69.336 78.1167 68.157 78.4286 67.1311 78.1901C67.1166 77.1177 66.7311 76.0863 65.9551 75.3103C65.7143 75.0695 65.4467 74.8698 65.1633 74.7027C65.3147 74.1357 65.6163 73.5865 66.0751 73.1277C66.9391 72.2637 68.1182 71.9519 69.1441 72.1903C69.1585 73.2628 69.5441 74.2942 70.3201 75.0702C70.5609 75.311 70.8284 75.5106 71.1119 75.6778C70.9605 76.2448 70.6588 76.7939 70.2001 77.2527ZM72.7674 74.6163C72.7529 73.5438 72.3674 72.5124 71.5914 71.7364C71.3506 71.4956 71.083 71.296 70.7996 71.1288C70.951 70.5618 71.2526 70.0127 71.7114 69.5539C72.1397 69.1256 72.6476 68.8415 73.1743 68.6809C74.0415 69.3812 75.1508 69.6661 76.2693 69.5551C77.1805 70.7126 77.0233 72.4919 75.8364 73.6789C74.9724 74.5429 73.7933 74.8547 72.7674 74.6163Z" fill="#6D7382"/>
</g>
<path d="M110.089 109.462L106.641 116.779L99.9964 112.167L100.176 109.168L108.434 106.955L110.089 109.462Z" fill="#CCC3FA"/>
<path d="M108.539 106.682L99.9499 108.984L99.7518 112.286L106.737 117.134L110.362 109.443L108.539 106.682ZM103.012 111.113L104.454 108.616L106.951 110.058L103.012 111.113ZM107.065 110.519L106.47 116.14L103.145 111.57L107.065 110.519ZM104.692 108.205L108.046 107.306L107.154 109.626L104.692 108.205ZM102.621 110.841L100.689 109.277L104.043 108.379L102.621 110.841ZM102.404 111.276L100.254 111.853L100.386 109.643L102.404 111.276ZM102.653 111.701L105.623 115.783L100.553 112.264L102.653 111.701ZM107.556 110.388L109.657 109.825L107.025 115.408L107.556 110.388ZM107.559 109.895L108.491 107.472L109.71 109.319L107.559 109.895Z" fill="#13151A"/>
<path d="M134.703 114.087L124.258 121.336L118.837 109.835L121.438 105.895L134.42 109.373L134.703 114.087Z" fill="#A898F5"/>
<path d="M134.777 109.083L121.276 105.466L118.41 109.806L124.109 121.896L135.089 114.275L134.777 109.083ZM123.771 110.772L127.697 108.506L129.963 112.431L123.771 110.772ZM129.755 113.148L124.528 120.333L123.593 111.497L129.755 113.148ZM128.343 108.132L133.616 109.545L130.578 112.003L128.343 108.132ZM123.453 110.094L122.05 106.446L127.323 107.859L123.453 110.094ZM122.815 110.516L119.435 109.61L121.351 106.707L122.815 110.516ZM122.82 111.29L123.655 119.182L119.518 110.405L122.82 111.29ZM130.528 113.355L133.829 114.24L125.859 119.772L130.528 113.355ZM130.919 112.687L134.091 110.12L134.3 113.593L130.919 112.687Z" fill="#13151A"/>
<path d="M111.87 128.338L109.371 121.382L116.645 120.068L118.466 122.122L114.56 128.888L111.87 128.338Z" fill="#8B77ED"/>
<path d="M114.669 129.133L118.733 122.096L116.727 119.834L109.08 121.215L111.707 128.527L114.669 129.133ZM115.377 122.699L116.059 125.244L113.514 125.926L115.377 122.699ZM113.142 125.701L109.895 121.685L114.997 122.49L113.142 125.701ZM116.172 125.663L114.585 128.412L113.662 126.336L116.172 125.663ZM115.806 122.622L118.066 122.383L116.479 125.132L115.806 122.622ZM115.665 122.201L116.683 120.438L118.025 121.952L115.665 122.201ZM115.23 122.087L110.672 121.368L116.223 120.366L115.23 122.087ZM112.91 126.104L111.916 127.825L110.009 122.517L112.91 126.104ZM113.226 126.424L114.19 128.592L112.209 128.187L113.226 126.424Z" fill="#13151A"/>
<defs>
<clipPath id="clip0_2714_6581">
<rect width="46.6688" height="52.1004" fill="white" transform="translate(58.7734 27.835) rotate(45)"/>
</clipPath>
</defs>
</svg>
