<svg width="20" height="20" viewBox="0 0 20 20" fill="none" xmlns="http://www.w3.org/2000/svg">
<path fill-rule="evenodd" clip-rule="evenodd" d="M4 0C1.79086 0 0 1.79086 0 4V16C0 18.2091 1.79086 20 4 20H16C18.2091 20 20 18.2091 20 16V4C20 1.79086 18.2091 0 16 0H4ZM16.1809 5.2893C15.7674 4.88977 15.1118 4.90618 14.7184 5.32536L8.51087 11.9391L5.78161 9.03124C5.38818 8.61206 4.73257 8.59565 4.31915 8.99518C3.90778 9.39272 3.89212 10.0516 4.28361 10.4688L7.76187 14.1746C7.95642 14.3819 8.22703 14.5 8.51087 14.5C8.79471 14.5 9.06532 14.3819 9.25987 14.1746L16.2164 6.76288C16.6079 6.34577 16.5922 5.68684 16.1809 5.2893Z" fill="#5B46C2"/>
</svg>
