<svg width="24" height="24" viewBox="0 0 24 24" fill="none" xmlns="http://www.w3.org/2000/svg">
<path fill-rule="evenodd" clip-rule="evenodd" d="M20.8486 5.15147C21.3172 5.6201 21.3172 6.3799 20.8486 6.84853L9.84858 17.8485C9.62353 18.0736 9.31831 18.2 9.00005 18.2C8.68179 18.2 8.37656 18.0736 8.15152 17.8485L3.15152 12.8485C2.68289 12.3799 2.68289 11.6201 3.15152 11.1515C3.62015 10.6828 4.37995 10.6828 4.84858 11.1515L9.00005 15.3029L19.1515 5.15147C19.6201 4.68284 20.3799 4.68284 20.8486 5.15147Z" fill="white"/>
<path d="M21.2021 7.20208C21.866 6.53819 21.866 5.46181 21.2021 4.79792C20.5382 4.13403 19.4619 4.13403 18.798 4.79792L9.00005 14.5958L5.20213 10.7979C4.53824 10.134 3.46186 10.134 2.79797 10.7979C2.13408 11.4618 2.13408 12.5382 2.79797 13.2021L7.79797 18.2021C8.11678 18.5209 8.54918 18.7 9.00005 18.7C9.45092 18.7 9.88332 18.5209 10.2021 18.2021L21.2021 7.20208Z" stroke="black" stroke-opacity="0.6" stroke-linecap="round" stroke-linejoin="round"/>
</svg>
