<svg width="20" height="40" viewBox="0 0 20 40" fill="none" xmlns="http://www.w3.org/2000/svg">
<path d="M2.01677 10.5943C1.90328 10.4146 1.84654 10.3248 1.81477 10.1862C1.79091 10.0821 1.79091 9.91791 1.81477 9.81381C1.84654 9.67522 1.90328 9.58537 2.01677 9.40567C2.95461 7.92069 5.74617 4.16666 10.0003 4.16666C14.2545 4.16666 17.0461 7.92069 17.9839 9.40567C18.0974 9.58537 18.1541 9.67522 18.1859 9.81381C18.2098 9.91791 18.2098 10.0821 18.1859 10.1862C18.1541 10.3248 18.0974 10.4146 17.9839 10.5943C17.0461 12.0793 14.2545 15.8333 10.0003 15.8333C5.74617 15.8333 2.95461 12.0793 2.01677 10.5943Z" stroke="#13151A" stroke-width="1.5" stroke-linecap="round" stroke-linejoin="round"/>
<path d="M10.0003 12.5C11.381 12.5 12.5003 11.3807 12.5003 9.99999C12.5003 8.61928 11.381 7.49999 10.0003 7.49999C8.61962 7.49999 7.50034 8.61928 7.50034 9.99999C7.50034 11.3807 8.61962 12.5 10.0003 12.5Z" stroke="#13151A" stroke-width="1.5" stroke-linecap="round" stroke-linejoin="round"/>
<path d="M8.95245 24.2436C9.29113 24.1935 9.64051 24.1667 10.0003 24.1667C14.2545 24.1667 17.0461 27.9207 17.9839 29.4057C18.0974 29.5854 18.1542 29.6753 18.1859 29.8139C18.2098 29.918 18.2098 30.0822 18.1859 30.1863C18.1541 30.3249 18.097 30.4154 17.9827 30.5963C17.7328 30.9918 17.3518 31.5476 16.8471 32.1504M5.6036 25.5959C3.80187 26.8181 2.57871 28.5161 2.01759 29.4044C1.90357 29.5849 1.84656 29.6751 1.81478 29.8137C1.79091 29.9178 1.7909 30.082 1.81476 30.1861C1.84652 30.3247 1.90328 30.4146 2.01678 30.5943C2.95462 32.0793 5.74618 35.8333 10.0003 35.8333C11.7157 35.8333 13.1932 35.223 14.4073 34.3972M2.50035 22.5L17.5003 37.5M8.23258 28.2322C7.78017 28.6846 7.50035 29.3096 7.50035 30C7.50035 31.3807 8.61963 32.5 10.0003 32.5C10.6907 32.5 11.3157 32.2202 11.7681 31.7678" stroke="#13151A" stroke-width="1.5" stroke-linecap="round" stroke-linejoin="round"/>
</svg>
