<svg width="240" height="64" viewBox="0 0 240 64" fill="none" xmlns="http://www.w3.org/2000/svg">
<path d="M99.5064 56.1064C99.5064 56.6591 99.3969 57.1317 99.1862 57.5241C98.984 57.9165 98.6976 58.2203 98.3268 58.4355C97.9561 58.6465 97.5348 58.7604 97.063 58.773V57.8785C97.5348 57.8532 97.9055 57.6929 98.1752 57.3891C98.4532 57.0853 98.5964 56.6465 98.5964 56.0726V50.4692H99.5064V56.1064Z" fill="white"/>
<path d="M110.392 50.4692V51.3469H106.853V53.4397H110.021V54.3342H106.853V56.4608H110.527V57.3553H105.926V50.4692H110.392Z" fill="white"/>
<path d="M122.081 57.6591L120.463 53.5409L118.711 57.676L115.964 50.4861H117.042L118.829 55.4987L120.008 52.3764L119.284 50.4861H120.194L122.115 55.3975L123.8 50.4861H124.794L122.081 57.6591Z" fill="white"/>
<path d="M135.061 50.4692V51.3469H131.522V53.4397H134.69V54.3342H131.522V56.4608H135.196V57.3553H130.595V50.4692H135.061Z" fill="white"/>
<path d="M142.167 50.4692V56.4608H145.655V57.3553H141.24V50.4692H142.167Z" fill="white"/>
<path d="M155.381 57.3553L153.763 54.8068C153.704 54.8194 153.628 54.8237 153.527 54.8237H152.516V57.3553H151.589V50.4692H153.426C153.898 50.4692 154.311 50.5536 154.673 50.7224C155.044 50.8827 155.33 51.1232 155.533 51.4481C155.743 51.7646 155.853 52.1486 155.853 52.5958C155.853 53.0262 155.756 53.4186 155.566 53.7773C155.385 54.1275 155.103 54.3975 154.724 54.5874L156.443 57.3553H155.381ZM153.51 53.9292C154.003 53.9292 154.357 53.8026 154.572 53.541C154.795 53.2709 154.909 52.9671 154.909 52.6296C154.909 52.427 154.863 52.233 154.774 52.0389C154.682 51.8363 154.538 51.676 154.336 51.5494C154.134 51.4144 153.881 51.3469 153.578 51.3469H152.516V53.9292H153.51Z" fill="white"/>
<path d="M167.626 50.4692L165.048 55.06V57.3553H164.121V55.06L161.576 50.4692H162.722L164.609 54.0135L166.497 50.4692H167.626Z" fill="white"/>
<path d="M184.544 57.3553L182.927 54.8068C182.868 54.8194 182.792 54.8237 182.691 54.8237H181.68V57.3553H180.753V50.4692H182.59C183.062 50.4692 183.474 50.5536 183.837 50.7224C184.207 50.8827 184.494 51.1232 184.696 51.4481C184.907 51.7646 185.016 52.1486 185.016 52.5958C185.016 53.0262 184.919 53.4186 184.73 53.7773C184.549 54.1275 184.266 54.3975 183.887 54.5874L185.606 57.3553H184.544ZM182.674 53.9292C183.167 53.9292 183.521 53.8026 183.736 53.541C183.959 53.2709 184.073 52.9671 184.073 52.6296C184.073 52.427 184.026 52.233 183.938 52.0389C183.845 51.8363 183.702 51.676 183.5 51.5494C183.297 51.4144 183.045 51.3469 182.741 51.3469H181.68V53.9292H182.674Z" fill="white"/>
<path d="M195.929 50.4692V51.3469H192.391V53.4397H195.559V54.3342H192.391V56.4608H196.064V57.3553H191.464V50.4692H195.929Z" fill="white"/>
<path d="M208.107 50.4693V57.5917H208.074L203.018 52.444L203.035 57.3554H202.108V50.2499H202.159L207.197 55.4482L207.181 50.4693H208.107Z" fill="white"/>
<path d="M218.576 50.4692V51.3469H216.722V57.3553H215.812V51.3469H214.009V50.4692H218.576Z" fill="white"/>
<path d="M228.09 55.5493H225.444L224.702 57.3552H223.792L226.809 50.1823H226.859L229.876 57.3552H228.797L228.09 55.5493ZM227.769 54.7392L226.792 52.2244L225.781 54.7392H227.769Z" fill="white"/>
<path d="M236.512 50.4692V56.4608H240V57.3553H235.585V50.4692H236.512Z" fill="white"/>
<path d="M55.2468 6.26148L62.9823 2.251L67.8702 10.244L64.7368 2.251L79.6303 15.9414L64.4453 0.122884L17.8196 0L60.9755 1.7483L55.2468 6.26148ZM26.166 18.6839L36.4687 6.69157L26.5416 15.8296L18.3409 1.20649L26.166 18.6839ZM16.4182 25.8335L4.69732 19.6725L22.0909 18.8403L3.90696 18.2706L15.1346 11.8359L3.95741 16.863L16.2669 1.8265L0 18.5666L33.8734 56.007L4.09755 20.4825L16.4182 25.8335ZM45.3084 56.5097L59.2379 32.1732L43.2961 58.6043L42.2871 59.6488L56.0484 21.7895L65.5215 29.9445L57.1526 20.9125L80.8859 18.2091H58.4755L67.4105 12.2325L57.304 17.5333L62.7468 3.79263L55.4374 15.986L54.6863 7.89806L54.2659 16.0922L42.0797 1.91028L52.1919 17.092L42.0013 12.0984L51.7827 18.332L27.2254 18.6895L51.8555 20.8399L42.5674 28.6821L52.6515 22.2028L41.9957 59.956L41.4463 60.5257L27.842 24.0014L39.5012 59.3193L24.3611 34.1616L41.0427 63.9888L41.0483 63.9944V64V63.9888L80.2805 20.1306L45.3084 56.5097ZM56.0764 18.1756L56.0652 18.1868L56.054 18.17L56.0764 18.1756Z" fill="white"/>
<path d="M115.923 5.76758H96.9482V38.0883H98.8356V22.8815H111.895V20.9743H98.8356V7.67475H116.866V5.76758H115.923Z" fill="white"/>
<path d="M121.18 37.5144L133.616 9.09247L146.052 37.5144L146.288 38.0883H148.378L147.754 36.7549L134.476 6.34142L134.24 5.76758H133.01L132.757 6.34142L119.478 36.7549L118.854 38.0883H120.944L121.18 37.5144Z" fill="white"/>
<path d="M156.054 37.1431V9.66631L176.124 37.7001L176.411 38.0883H177.843V37.1431L177.894 6.71273V5.76758H175.989V6.71273L175.939 34.1895L155.869 6.15576L155.582 5.76758H154.167V38.0883H156.054V37.1431Z" fill="white"/>
<path d="M209.952 30.2908C208.747 32.3499 206.885 33.9532 204.357 35.1009C202.681 35.8224 201.021 36.1811 199.369 36.1811C195.898 36.1811 192.958 34.7423 190.556 31.8604C188.205 29.0714 187.034 25.7634 187.034 21.9364C187.034 17.8435 188.315 14.3878 190.876 11.5735C193.278 9.00808 196.109 7.70851 199.369 7.67475C202.344 7.67475 205.036 8.67053 207.441 10.6621C208.486 11.5861 209.278 12.5524 209.817 13.565L211.519 12.7043C210.382 10.5229 208.456 8.73382 205.739 7.3372C203.65 6.29078 201.526 5.76758 199.369 5.76758C195.515 5.76758 192.212 7.28657 189.461 10.3245C186.584 13.4975 185.147 17.371 185.147 21.9364C185.147 26.5271 186.584 30.392 189.461 33.5313C192.246 36.5355 195.548 38.0545 199.369 38.0883C202.794 38.0883 205.929 36.9026 208.772 34.5271C209.973 33.4807 210.904 32.3836 211.57 31.2359L209.952 30.2908Z" fill="white"/>
<path d="M228.076 22.2064L237.816 7.23593L238.759 5.76758H236.484L236.198 6.18952L227.132 20.2148L217.881 6.18952L217.594 5.76758H215.319L216.263 7.23593L226.188 22.2064V38.0883H228.076V22.2064Z" fill="white"/>
</svg>
