<svg width="24" height="48" viewBox="0 0 24 48" fill="none" xmlns="http://www.w3.org/2000/svg">
<path d="M16.1111 3C19.6333 3 22 6.3525 22 9.48C22 15.8138 12.1778 21 12 21C11.8222 21 2 15.8138 2 9.48C2 6.3525 4.36667 3 7.88889 3C9.91111 3 11.2333 4.02375 12 4.92375C12.7667 4.02375 14.0889 3 16.1111 3Z" stroke="#13151A" stroke-width="1.5" stroke-linecap="round" stroke-linejoin="round"/>
<path d="M16.1111 27C19.6333 27 22 30.3525 22 33.48C22 39.8138 12.1778 45 12 45C11.8222 45 2 39.8138 2 33.48C2 30.3525 4.36667 27 7.88889 27C9.91111 27 11.2333 28.0238 12 28.9238C12.7667 28.0238 14.0889 27 16.1111 27Z" fill="#13151A" stroke="#13151A" stroke-width="1.5" stroke-linecap="round" stroke-linejoin="round"/>
</svg>
