<svg width="157" height="156" viewBox="0 0 157 156" fill="none" xmlns="http://www.w3.org/2000/svg">
<path d="M131.063 129.253C133.28 129.928 133.565 131.124 131.705 131.923C129.84 132.726 126.532 132.829 124.314 132.155L92.1128 121.925H29.0401C26.1079 121.925 23.7324 121.065 23.7324 120.007C23.7324 118.948 26.1079 118.089 29.0401 118.089H60.7625V116.574H29.0401C26.1079 116.574 23.7324 115.715 23.7324 114.656C23.7324 113.597 26.1092 112.738 29.0401 112.738H92.1686L123.672 101.844C125.89 101.171 129.198 101.274 131.063 102.076C132.926 102.877 132.638 104.072 130.421 104.747L102.152 114.655C101.205 114.943 100.661 115.365 100.661 115.811V118.851C100.661 119.297 101.205 119.719 102.152 120.007L131.063 129.253Z" fill="#13151A"/>
<path d="M116.892 121.505C110.512 121.505 105.341 119.636 105.341 117.331C105.341 115.026 110.512 113.157 116.893 113.157C123.273 113.157 128.446 115.026 128.446 117.331C128.446 119.636 123.273 121.505 116.892 121.505Z" fill="#13151A"/>
<path d="M36.2598 34.5094C36.2598 30.5932 39.4345 27.4185 43.3507 27.4185H111.423C115.34 27.4185 118.514 30.5932 118.514 34.5094V111.091C118.514 115.007 115.34 118.182 111.423 118.182H43.3507C39.4345 118.182 36.2598 115.007 36.2598 111.091V34.5094Z" fill="white"/>
<path d="M110.714 33.0913H46.896H43.3506V35.2186V60.7459H57.5324V84.1459L56.8233 84.8549H43.3506V111.8H112.132V99.7458H109.296V94.0731H102.914V88.4004H109.296V82.0186H112.841V63.5822H109.296V57.9095H102.914V51.5277H108.587V45.1459H112.132V35.2186L110.714 33.0913Z" fill="#A898F5"/>
<path d="M62.574 73.2772C62.8306 80.5992 68.8694 86.3797 76.1385 86.3797C76.2985 86.3797 76.46 86.3767 76.6216 86.3706C84.105 86.108 89.9792 79.8051 89.715 72.3216C89.4523 64.8381 83.1766 59.0183 75.6659 59.2282C68.184 59.4939 62.3098 65.7953 62.574 73.2772ZM83.5223 71.298C83.3321 70.3499 82.9607 69.4623 82.4308 68.6591L84.5987 66.4912C85.6313 67.8695 86.3393 69.506 86.596 71.2965L83.5223 71.298ZM68.7667 74.3023C68.9569 75.2504 69.3283 76.1381 69.8597 76.9412L67.6843 79.1166C66.6532 77.7368 65.9481 76.0958 65.693 74.3038L68.7667 74.3023ZM75.986 68.2741C76.0403 68.2711 76.0947 68.2711 76.149 68.2711C77.2979 68.2711 78.3864 68.6999 79.2333 69.4864C80.118 70.3107 80.6282 71.4309 80.6705 72.6401C80.7128 73.8494 80.2825 75.0013 79.4567 75.8874C78.6324 76.7721 77.5123 77.2824 76.303 77.3247C75.1315 77.3533 73.9419 76.9367 73.0557 76.1109C72.171 75.2866 71.6608 74.1664 71.6185 72.9572C71.5762 71.7479 72.0065 70.5945 72.8323 69.7098C73.6565 68.8267 74.7767 68.3164 75.986 68.2741ZM71.9853 79.0834C72.7915 79.6194 73.6837 79.9968 74.6273 80.1885V83.2456C72.8428 82.9905 71.1988 82.29 69.8159 81.2528L71.9853 79.0834ZM77.6466 80.178C78.5947 79.9877 79.4824 79.6164 80.2855 79.0849L82.4549 81.2544C81.0766 82.287 79.4371 82.9935 77.6466 83.2501V80.178ZM80.3006 66.5199C79.4975 65.987 78.6083 65.6247 77.6617 65.4314V62.3607C79.4401 62.6189 81.0796 63.3194 82.4625 64.3565L80.3006 66.5199ZM74.6424 65.4209C73.6943 65.6111 72.8051 65.984 72.0034 66.5139L69.834 64.3445C71.2124 63.3118 72.8519 62.6053 74.6424 62.3502V65.4209ZM69.8642 68.644C69.3298 69.4487 68.963 70.3409 68.7712 71.2829H65.7005C65.9587 69.503 66.6592 67.8605 67.6963 66.4776L69.8642 68.644ZM84.5911 79.1227L82.4248 76.9563C82.9592 76.1516 83.326 75.2594 83.5178 74.3174H86.5884C86.3303 76.0958 85.6298 77.7383 84.5911 79.1227Z" fill="#13151A"/>
<path d="M76.1444 74.3099C76.9782 74.3099 77.6541 73.634 77.6541 72.8002C77.6541 71.9664 76.9782 71.2905 76.1444 71.2905C75.3107 71.2905 74.6348 71.9664 74.6348 72.8002C74.6348 73.634 75.3107 74.3099 76.1444 74.3099Z" fill="#13151A"/>
<path d="M112.385 26H42.9395C38.7773 26 35.3911 29.3862 35.3911 33.5484V68.271H29.3524C27.6872 68.271 26.333 69.6252 26.333 71.2903C26.333 74.6207 29.0414 77.329 32.3717 77.329H35.3911V112.052C35.3911 116.214 38.7773 119.6 42.9395 119.6H112.385C116.547 119.6 119.933 116.214 119.933 112.052V33.5484C119.933 29.3862 116.547 26 112.385 26ZM29.3524 71.2903H41.626L42.0623 70.54C43.101 68.751 45.0847 67.9147 47.1167 68.4129C48.6898 68.7978 49.9927 70.1158 50.3595 71.6934C50.6901 73.114 50.3882 74.5074 49.5096 75.6125C48.6415 76.704 47.3492 77.329 45.9588 77.329C44.3465 77.329 42.8896 76.4806 42.0623 75.06L41.626 74.3097H32.3717C30.7065 74.3097 29.3524 72.9555 29.3524 71.2903ZM112.385 116.581H42.9395C40.4425 116.581 38.4104 114.549 38.4104 112.052V77.329H39.9518C41.3694 79.2101 43.5992 80.3484 45.9588 80.3484C48.2747 80.3484 50.4305 79.3082 51.8722 77.4906C53.3155 75.6744 53.8363 73.3118 53.2989 71.0095C52.6708 68.3087 50.5256 66.1393 47.8323 65.4811C44.819 64.7429 41.7589 65.857 39.9488 68.271H38.4104V33.5484C38.4104 31.0514 40.4425 29.0194 42.9395 29.0194H112.385C114.882 29.0194 116.914 31.0514 116.914 33.5484V44.1161H113.894V35.0581C113.894 33.3929 112.54 32.0387 110.875 32.0387H44.4491C42.784 32.0387 41.4298 33.3929 41.4298 35.0581V62.2323H55.0169C55.8502 62.2323 56.5266 62.9101 56.5266 63.7419V81.8581C56.5266 82.6914 55.8502 83.3677 55.0169 83.3677H41.4298V110.542C41.4298 112.207 42.784 113.561 44.4491 113.561H110.875C112.54 113.561 113.894 112.207 113.894 110.542V101.484H116.914V112.052C116.914 114.549 114.882 116.581 112.385 116.581ZM55.0169 59.2129H44.4491V35.0581H110.875V44.1161H107.856V50.1548H101.817V59.2129H107.856V65.2516H110.875V80.3484H107.856V86.3871H101.817V95.4452H107.856V101.484H110.875V110.542H44.4491V86.3871H55.0169C57.5139 86.3871 59.5459 84.3551 59.5459 81.8581V63.7419C59.5459 61.2449 57.5139 59.2129 55.0169 59.2129ZM107.856 56.1936H104.836V53.1742H107.856V56.1936ZM107.856 92.4258H104.836V89.4065H107.856V92.4258ZM110.875 98.4645V92.4258H116.914V98.4645H110.875ZM110.875 89.4065V83.3677H116.914V89.4065H110.875ZM113.894 80.3484V65.2516H116.914V80.3484H113.894ZM110.875 62.2323V56.1936H116.914V62.2323H110.875ZM110.875 53.1742V47.1355H116.914V53.1742H110.875Z" fill="#13151A"/>
<path d="M88.2294 62.2322C89.0632 62.2322 89.7391 61.5563 89.7391 60.7226C89.7391 59.8888 89.0632 59.2129 88.2294 59.2129C87.3956 59.2129 86.7197 59.8888 86.7197 60.7226C86.7197 61.5563 87.3956 62.2322 88.2294 62.2322Z" fill="#13151A"/>
<path d="M88.2294 86.387C89.0632 86.387 89.7391 85.7111 89.7391 84.8774C89.7391 84.0436 89.0632 83.3677 88.2294 83.3677C87.3956 83.3677 86.7197 84.0436 86.7197 84.8774C86.7197 85.7111 87.3956 86.387 88.2294 86.387Z" fill="#13151A"/>
<path d="M64.0751 62.2322C64.9089 62.2322 65.5848 61.5563 65.5848 60.7226C65.5848 59.8888 64.9089 59.2129 64.0751 59.2129C63.2413 59.2129 62.5654 59.8888 62.5654 60.7226C62.5654 61.5563 63.2413 62.2322 64.0751 62.2322Z" fill="#13151A"/>
<path d="M64.0751 86.387C64.9089 86.387 65.5848 85.7111 65.5848 84.8774C65.5848 84.0436 64.9089 83.3677 64.0751 83.3677C63.2413 83.3677 62.5654 84.0436 62.5654 84.8774C62.5654 85.7111 63.2413 86.387 64.0751 86.387Z" fill="#13151A"/>
<path d="M53.5068 38.0776H56.5262V41.097H53.5068V38.0776Z" fill="#13151A"/>
<path d="M47.4688 38.0776H50.4881V41.097H47.4688V38.0776Z" fill="#13151A"/>
<path d="M59.5469 38.0776H62.5662V41.097H59.5469V38.0776Z" fill="#13151A"/>
<path d="M65.585 38.0776H68.6043V41.097H65.585V38.0776Z" fill="#13151A"/>
<path d="M104.836 104.503H107.855V107.523H104.836V104.503Z" fill="#13151A"/>
<path d="M98.7979 104.503H101.817V107.523H98.7979V104.503Z" fill="#13151A"/>
<path d="M86.7197 104.503H89.7391V107.523H86.7197V104.503Z" fill="#13151A"/>
<path d="M92.7588 104.503H95.7781V107.523H92.7588V104.503Z" fill="#13151A"/>
</svg>
