<svg width="156" height="156" viewBox="0 0 156 156" fill="none" xmlns="http://www.w3.org/2000/svg">
<path d="M59.0925 123.738C51.4814 115.333 45.1307 105.868 40.239 95.6389C40.1383 95.4219 39.9955 95.227 39.819 95.0656C39.6424 94.9041 39.4356 94.7793 39.2105 94.6982C38.9854 94.6172 38.7465 94.5816 38.5076 94.5936C38.2686 94.6055 38.0344 94.6646 37.8185 94.7677C37.6026 94.8707 37.4092 95.0155 37.2496 95.1937C37.09 95.3719 36.9674 95.58 36.8887 95.8059C36.81 96.0319 36.777 96.2712 36.7914 96.51C36.8058 96.7488 36.8674 96.9823 36.9727 97.1972C42.0152 107.743 48.5619 117.5 56.408 126.164C58.6358 128.63 60.9849 131.088 63.3905 133.471C63.5591 133.639 63.7592 133.772 63.9795 133.863C64.1998 133.954 64.4358 134 64.674 134C64.9122 133.999 65.148 133.951 65.3678 133.86C65.5875 133.768 65.787 133.633 65.9547 133.464C66.1223 133.295 66.2549 133.094 66.3449 132.873C66.4348 132.653 66.4803 132.416 66.4787 132.178C66.4771 131.94 66.4285 131.704 66.3357 131.485C66.2429 131.266 66.1076 131.067 65.9377 130.9C63.5787 128.564 61.2755 126.153 59.0925 123.738Z" fill="#8B92A3"/>
<path d="M43.0886 114.781C42.9564 114.582 42.7861 114.411 42.5873 114.277C42.3886 114.144 42.1654 114.052 41.9307 114.005C41.696 113.959 41.4545 113.96 41.22 114.007C40.9856 114.055 40.7629 114.149 40.5649 114.283C40.3668 114.417 40.1974 114.589 40.0663 114.789C39.9352 114.989 39.8451 115.214 39.8012 115.449C39.7573 115.684 39.7605 115.925 39.8106 116.159C39.8606 116.393 39.9565 116.615 40.0928 116.812C42.7838 120.784 45.7062 124.594 48.8447 128.222C49.1587 128.585 49.6041 128.809 50.0828 128.843C50.5616 128.878 51.0344 128.721 51.3973 128.407C51.7603 128.093 51.9836 127.647 52.0182 127.169C52.0528 126.69 51.8958 126.217 51.5817 125.854C48.536 122.333 45.7001 118.636 43.0886 114.781Z" fill="#8B92A3"/>
<path d="M59.8686 28.1849C65.693 25.5793 72.0014 24.231 78.3821 24.2278C88.0454 24.2273 97.4508 27.345 105.201 33.1174C108.072 35.2399 110.684 37.6921 112.984 40.4236C113.137 40.6069 113.324 40.7582 113.536 40.8689C113.747 40.9795 113.978 41.0472 114.216 41.0682C114.453 41.0892 114.693 41.063 114.92 40.9911C115.148 40.9193 115.359 40.8031 115.541 40.6494C115.723 40.4957 115.874 40.3075 115.983 40.0955C116.092 39.8835 116.159 39.652 116.178 39.4143C116.198 39.1766 116.17 38.9374 116.097 38.7103C116.024 38.4833 115.907 38.273 115.752 38.0915C113.269 35.1434 110.449 32.497 107.349 30.2064C101.438 25.8123 94.6057 22.8189 87.3681 21.4523C80.1304 20.0858 72.6768 20.3819 65.5704 22.3182C63.1142 22.9856 60.7135 23.8426 58.3899 24.8815C57.9618 25.0838 57.6301 25.4458 57.4658 25.89C57.3016 26.3341 57.318 26.8249 57.5115 27.2571C57.705 27.6892 58.0602 28.0283 58.5008 28.2016C58.9415 28.3749 59.4325 28.3686 59.8686 28.184V28.1849Z" fill="#8B92A3"/>
<path d="M40.1394 42.0349C40.5187 42.3289 40.9992 42.4603 41.4754 42.4001C41.9515 42.3398 42.3842 42.0929 42.6783 41.7137C45.8363 37.6324 49.6724 34.1244 54.019 31.3429C54.4233 31.0841 54.7081 30.6753 54.811 30.2064C54.9138 29.7376 54.8262 29.2471 54.5674 28.8428C54.4393 28.6427 54.273 28.4697 54.078 28.3338C53.883 28.1979 53.6631 28.1018 53.431 28.0508C52.9621 27.948 52.4716 28.0356 52.0674 28.2944C47.3727 31.2987 43.2293 35.0876 39.8182 39.4956C39.6725 39.6834 39.5653 39.898 39.5026 40.1273C39.4399 40.3566 39.423 40.596 39.4528 40.8318C39.4826 41.0676 39.5586 41.2952 39.6764 41.5016C39.7942 41.7081 39.9516 41.8893 40.1394 42.0349Z" fill="#8B92A3"/>
<path d="M40.1179 58.3671C40.3428 58.4439 40.5807 58.4758 40.8178 58.4607C41.055 58.4456 41.2869 58.384 41.5003 58.2793C41.7137 58.1746 41.9043 58.0289 42.0614 57.8506C42.2185 57.6722 42.3388 57.4646 42.4157 57.2397C44.9668 49.7244 49.808 43.197 56.2593 38.5743C62.7105 33.9515 70.4478 31.4657 78.3843 31.4659C94.8842 31.4659 109.814 42.4818 114.69 58.2517C114.704 58.2945 114.718 58.337 114.736 58.3788C115.224 59.58 115.797 60.7452 116.45 61.8655C116.568 62.0716 116.726 62.2524 116.914 62.3975C117.102 62.5427 117.317 62.6493 117.547 62.7114C117.776 62.7735 118.015 62.7898 118.251 62.7594C118.487 62.729 118.714 62.6524 118.92 62.5341C119.126 62.4158 119.307 62.2581 119.452 62.0699C119.598 61.8817 119.704 61.6668 119.766 61.4374C119.828 61.208 119.845 60.9687 119.814 60.733C119.784 60.4973 119.707 60.2699 119.589 60.0638C119.036 59.1147 118.548 58.1293 118.128 57.1144C112.764 39.8791 96.4314 27.8467 78.3843 27.8467C69.6928 27.8466 61.2195 30.5686 54.1542 35.6305C47.0888 40.6923 41.7862 47.8399 38.9908 56.0696C38.8356 56.5237 38.8672 57.0209 39.0785 57.4518C39.2899 57.8826 39.6638 58.2119 40.1179 58.3671Z" fill="#8B92A3"/>
<path d="M64.4611 118.886C48.0843 100.764 42.6351 82.8415 41.7089 79.4329C40.3252 74.3775 40.0124 69.0889 40.7905 63.9056C40.8265 63.6702 40.8157 63.43 40.7587 63.1988C40.7017 62.9675 40.5996 62.7498 40.4583 62.5581C40.317 62.3664 40.1392 62.2045 39.9352 62.0816C39.7311 61.9588 39.5049 61.8774 39.2693 61.8422C39.0338 61.8069 38.7936 61.8186 38.5625 61.8764C38.3315 61.9342 38.1141 62.037 37.9229 62.179C37.7317 62.321 37.5704 62.4993 37.4482 62.7038C37.3261 62.9082 37.2455 63.1348 37.2111 63.3705C36.3586 69.0487 36.7009 74.8424 38.2163 80.3807C39.1804 83.9299 44.8474 102.58 61.7761 121.313C62.6307 122.259 63.5093 123.21 64.3876 124.14C64.7174 124.489 65.1723 124.692 65.6523 124.706C66.1322 124.72 66.5979 124.542 66.9469 124.212C67.2959 123.882 67.4996 123.427 67.5132 122.947C67.5268 122.467 67.3492 122.002 67.0194 121.653C66.1585 120.743 65.2981 119.812 64.4611 118.886Z" fill="#8B92A3"/>
<path d="M79.0623 133.253C76.7569 131.23 74.4788 129.126 72.2908 126.998C71.9466 126.664 71.4837 126.48 71.0038 126.487C70.5239 126.493 70.0663 126.69 69.7318 127.035C69.3973 127.379 69.2131 127.842 69.2199 128.322C69.2267 128.801 69.4238 129.259 69.768 129.594C71.9999 131.763 74.3236 133.91 76.675 135.972C76.8536 136.129 77.0613 136.249 77.2863 136.326C77.5114 136.402 77.7492 136.434 77.9864 136.418C78.2235 136.403 78.4553 136.341 78.6684 136.236C78.8816 136.131 79.072 135.985 79.2288 135.806C79.3855 135.627 79.5056 135.42 79.582 135.195C79.6585 134.97 79.6899 134.732 79.6744 134.495C79.659 134.257 79.597 134.026 79.4919 133.812C79.3869 133.599 79.2409 133.409 79.0623 133.252V133.253Z" fill="#8B92A3"/>
<path d="M119.508 71.8123C119.053 71.3278 118.6 70.8367 118.163 70.3526C113.531 65.2272 111.562 60.2384 111.28 59.4847C110.234 56.0395 108.647 52.7825 106.578 49.8354C106.443 49.6383 106.27 49.4698 106.069 49.3399C105.868 49.2101 105.643 49.1213 105.408 49.0787C105.173 49.0361 104.931 49.0406 104.698 49.092C104.464 49.1433 104.243 49.2404 104.047 49.3777C103.851 49.515 103.685 49.6898 103.557 49.8919C103.429 50.094 103.342 50.3195 103.302 50.5552C103.262 50.791 103.269 51.0324 103.323 51.2655C103.376 51.4985 103.476 51.7186 103.615 51.9131C105.473 54.5604 106.897 57.4876 107.832 60.584C107.842 60.6175 107.853 60.6507 107.865 60.6837C108.243 61.715 110.387 67.1451 115.478 72.7791C115.93 73.2806 116.4 73.7893 116.872 74.2914C117.201 74.6411 117.655 74.8458 118.135 74.8606C118.614 74.8754 119.08 74.699 119.43 74.3703C119.78 74.0415 119.984 73.5873 119.999 73.1076C120.014 72.6279 119.837 72.162 119.509 71.8123H119.508Z" fill="#8B92A3"/>
<path d="M70.3191 39.7814C75.3145 38.4208 80.5733 38.3485 85.6043 39.5713C90.6352 40.794 95.2742 43.272 99.0878 46.7736C99.4429 47.0965 99.9117 47.2652 100.391 47.2424C100.871 47.2196 101.321 47.0074 101.644 46.6523C101.967 46.2972 102.136 45.8284 102.113 45.3489C102.09 44.8695 101.878 44.4188 101.523 44.0959C97.2591 40.1849 92.0741 37.4178 86.4517 36.0526C80.8293 34.6874 74.9527 34.7687 69.3702 36.2888C51.0741 41.2584 40.2337 60.1866 45.2033 78.4829C46.1049 81.6495 47.2235 84.7503 48.551 87.7632C48.7413 88.2038 49.0989 88.5508 49.545 88.7278C49.9911 88.9048 50.4893 88.8973 50.9299 88.707C51.3705 88.5167 51.7174 88.1592 51.8944 87.7131C52.0714 87.267 52.064 86.7688 51.8737 86.3282C50.6136 83.4733 49.5515 80.535 48.6949 77.5343C44.2496 61.1638 53.9495 44.2278 70.3191 39.7814Z" fill="#8B92A3"/>
<path d="M88.8979 132.097C82.0899 126.573 75.7162 120.533 69.833 114.032C63.8983 107.483 58.827 100.201 54.743 92.3625C54.6345 92.1498 54.485 91.9607 54.3032 91.8061C54.1213 91.6514 53.9106 91.5342 53.6832 91.4614C53.4559 91.3885 53.2164 91.3613 52.9785 91.3814C52.7406 91.4015 52.509 91.4685 52.2971 91.5785C52.0852 91.6885 51.8972 91.8394 51.7438 92.0224C51.5905 92.2054 51.4749 92.4169 51.4037 92.6448C51.3325 92.8727 51.307 93.1124 51.3289 93.3502C51.3507 93.5879 51.4194 93.819 51.5309 94.0301C55.7574 102.142 61.0058 109.68 67.1478 116.459C73.1556 123.097 79.6644 129.265 86.6167 134.907C86.9893 135.21 87.4669 135.352 87.9442 135.302C88.4216 135.252 88.8598 135.015 89.1623 134.643C89.4648 134.27 89.6069 133.793 89.5573 133.315C89.5077 132.838 89.2706 132.4 88.8979 132.097V132.097Z" fill="#8B92A3"/>
<path d="M100.974 62.902C101.239 63.6681 103.747 70.5912 110.111 77.6328C112.109 79.8441 114.261 82.0416 116.506 84.1647C116.855 84.4944 117.321 84.6721 117.8 84.6586C118.038 84.652 118.272 84.5986 118.489 84.5015C118.706 84.4044 118.901 84.2656 119.065 84.0929C119.228 83.9202 119.356 83.7171 119.44 83.495C119.525 83.273 119.565 83.0365 119.559 82.7989C119.552 82.5614 119.498 82.3275 119.401 82.1106C119.304 81.8936 119.165 81.698 118.993 81.5347C116.816 79.4763 114.731 77.3473 112.795 75.2061C107.004 68.799 104.707 62.6127 104.407 61.7563C102.723 56.1573 99.285 51.2472 94.6004 47.7488C89.9157 44.2504 84.2315 42.3487 78.3848 42.3237C77.9049 42.3237 77.4446 42.5144 77.1052 42.8537C76.7659 43.1931 76.5752 43.6534 76.5752 44.1333C76.5752 44.6133 76.7659 45.0735 77.1052 45.4129C77.4446 45.7523 77.9049 45.9429 78.3848 45.9429C83.4587 45.9647 88.3911 47.6172 92.454 50.6564C96.517 53.6957 99.4951 57.9607 100.949 62.8219C100.957 62.8486 100.965 62.8753 100.974 62.902Z" fill="#8B92A3"/>
<path d="M64.9212 102.13C65.0585 102.324 65.2327 102.489 65.4338 102.616C65.6349 102.742 65.8589 102.828 66.0932 102.868C66.3274 102.908 66.5673 102.902 66.799 102.849C67.0308 102.797 67.2499 102.699 67.4438 102.561C67.6378 102.424 67.8028 102.25 67.9294 102.049C68.0561 101.848 68.1419 101.624 68.1819 101.39C68.222 101.155 68.2155 100.915 68.1629 100.684C68.1103 100.452 68.0125 100.233 67.8752 100.039C59.2796 87.8965 56.2078 77.5809 55.6794 75.6363C54.0961 69.7788 54.8341 63.5363 57.7396 58.2095C60.6451 52.8828 65.4939 48.8825 71.2759 47.0424C71.7335 46.8977 72.1149 46.5772 72.3361 46.1513C72.5574 45.7254 72.6004 45.229 72.4557 44.7714C72.311 44.3138 71.9904 43.9324 71.5645 43.7111C71.1386 43.4898 70.6423 43.4468 70.1847 43.5915C63.5121 45.7133 57.9159 50.3287 54.5629 56.4755C51.2098 62.6223 50.3587 69.826 52.1869 76.585C52.9684 79.4615 56.1967 89.8063 64.9212 102.13Z" fill="#8B92A3"/>
<path d="M96.8757 129.184C89.0674 123.177 81.8139 116.482 75.2026 109.179C74.1528 108.017 73.1182 106.816 72.1263 105.61C71.9759 105.424 71.7905 105.271 71.5806 105.158C71.3707 105.045 71.1405 104.974 70.9032 104.95C70.666 104.926 70.4263 104.949 70.1981 105.018C69.9698 105.087 69.7574 105.201 69.5732 105.352C69.3889 105.503 69.2363 105.69 69.1243 105.9C69.0123 106.111 68.9429 106.341 68.9203 106.579C68.8976 106.816 68.9221 107.056 68.9924 107.284C69.0626 107.511 69.1772 107.723 69.3295 107.907C70.3563 109.157 71.4287 110.401 72.5165 111.605C79.2759 119.072 86.6919 125.916 94.6752 132.057C94.8634 132.206 95.0794 132.317 95.3107 132.382C95.542 132.447 95.784 132.465 96.0224 132.435C96.2609 132.406 96.491 132.329 96.6995 132.21C96.908 132.09 97.0907 131.931 97.2368 131.74C97.3829 131.549 97.4895 131.331 97.5505 131.099C97.6115 130.867 97.6256 130.624 97.592 130.386C97.5584 130.149 97.4777 129.92 97.3547 129.713C97.2317 129.507 97.0689 129.327 96.8757 129.184Z" fill="#8B92A3"/>
<path d="M119.186 91.4206C115.017 87.899 111.088 84.1038 107.423 80.06C106.122 78.6188 104.899 77.1081 103.761 75.5344C103.479 75.1475 103.056 74.8881 102.583 74.813C102.11 74.7378 101.627 74.8531 101.239 75.1336C100.851 75.414 100.59 75.8368 100.513 76.3093C100.436 76.7818 100.549 77.2655 100.828 77.6546C102.043 79.3348 103.348 80.9478 104.738 82.4866C108.511 86.6501 112.556 90.5577 116.848 94.1834C117.215 94.4907 117.689 94.6402 118.165 94.5993C118.642 94.5585 119.083 94.3305 119.392 93.9653C119.701 93.6 119.853 93.1273 119.814 92.6505C119.776 92.1736 119.55 91.7314 119.186 91.4206H119.186Z" fill="#8B92A3"/>
<path d="M74.1125 53.7524C78.241 52.6298 82.6454 53.1774 86.3734 55.2766C90.1014 57.3758 92.8533 60.8581 94.0341 64.9703C94.0395 64.9891 94.0454 65.0079 94.0513 65.0264C94.1956 65.4727 95.0079 67.8736 96.8541 71.3132C96.9665 71.5226 97.119 71.7078 97.303 71.8583C97.487 72.0088 97.6988 72.1215 97.9264 72.1901C98.1539 72.2588 98.3927 72.2819 98.6292 72.2582C98.8657 72.2345 99.0952 72.1645 99.3046 72.0521C99.5141 71.9397 99.6993 71.7871 99.8498 71.6032C100 71.4192 100.113 71.2074 100.182 70.9798C100.25 70.7523 100.273 70.5134 100.25 70.2769C100.226 70.0405 100.156 69.811 100.044 69.6015C99.0427 67.7874 98.1934 65.8937 97.5042 63.9398C96.0476 58.8926 92.6549 54.6259 88.0658 52.0696C83.4766 49.5133 78.0629 48.8747 73.0049 50.293C67.9469 51.7113 63.6545 55.0715 61.0635 59.6411C58.4725 64.2108 57.7928 69.6194 59.1727 74.6881C59.9094 77.3993 64.2737 91.6876 77.8878 106.753C80.8005 109.975 83.8999 113.133 87.0997 116.138C87.4496 116.467 87.9157 116.643 88.3954 116.628C88.8751 116.613 89.3292 116.408 89.6577 116.058C89.9862 115.708 90.1623 115.242 90.1473 114.762C90.1322 114.282 89.9272 113.828 89.5773 113.5C86.4487 110.562 83.4192 107.476 80.5727 104.326C67.5109 89.8715 63.3635 76.3104 62.665 73.7387C61.5379 69.5705 62.1102 65.1254 64.2562 61.3786C66.4023 57.6318 69.9469 54.8892 74.1125 53.7524Z" fill="#8B92A3"/>
<path d="M103.468 125.092C100.666 123.038 97.8128 120.771 94.9867 118.352C94.621 118.048 94.1503 117.9 93.6763 117.94C93.2024 117.98 92.7633 118.205 92.454 118.567C92.1448 118.928 91.9904 119.397 92.0241 119.871C92.0578 120.346 92.277 120.788 92.6342 121.102C95.5295 123.579 98.4543 125.904 101.329 128.011C101.716 128.291 102.199 128.407 102.671 128.333C103.144 128.259 103.568 128.001 103.851 127.615C104.133 127.229 104.252 126.747 104.18 126.275C104.109 125.802 103.853 125.376 103.468 125.092H103.468Z" fill="#8B92A3"/>
<path d="M118.48 100.168C112.574 95.5669 107.078 90.4626 102.054 84.9123C93.5616 75.5146 90.7407 66.577 90.5719 66.0246C89.6629 62.8007 87.514 60.068 84.5952 58.4245C81.6765 56.781 78.2256 56.3605 74.9976 57.2549C71.7696 58.1494 69.0272 60.286 67.3706 63.1973C65.7139 66.1086 65.2779 69.5576 66.1578 72.7896C66.2225 73.0273 66.367 73.536 66.6077 74.2728C66.7587 74.7267 67.0833 75.1023 67.5104 75.3176C67.9376 75.5328 68.4327 75.5702 68.8873 75.4215C69.342 75.2728 69.7193 74.9501 69.9367 74.524C70.1541 74.0979 70.1939 73.603 70.0475 73.1477C69.8317 72.4874 69.7062 72.0452 69.6503 71.8404C69.019 69.5298 69.3296 67.0632 70.5141 64.9812C71.6987 62.8993 73.6604 61.372 75.9693 60.7343C78.2781 60.0965 80.7457 60.4003 82.8309 61.5791C84.9161 62.7578 86.4488 64.7153 87.093 67.0224C87.0961 67.0337 87.0993 67.045 87.1027 67.0561C87.2269 67.4676 90.2489 77.2471 99.369 87.3389C104.536 93.0468 110.188 98.2961 116.262 103.028C116.449 103.174 116.664 103.281 116.893 103.344C117.122 103.406 117.362 103.423 117.598 103.393C117.833 103.364 118.061 103.288 118.267 103.17C118.474 103.052 118.655 102.895 118.801 102.707C118.946 102.519 119.054 102.305 119.116 102.076C119.179 101.846 119.196 101.607 119.166 101.371C119.137 101.135 119.061 100.908 118.943 100.701C118.825 100.495 118.668 100.314 118.48 100.168Z" fill="#8B92A3"/>
<path d="M108.901 120.094C104.374 116.87 95.3707 109.904 85.9416 99.4714C80.5683 93.5571 76.0953 86.8837 72.6664 79.6661C72.5668 79.449 72.4253 79.2538 72.2499 79.0917C72.0746 78.9295 71.8689 78.8037 71.6446 78.7215C71.4204 78.6393 71.1821 78.6022 70.9435 78.6125C70.7049 78.6228 70.4707 78.6802 70.2544 78.7815C70.0381 78.8827 69.844 79.0257 69.6833 79.2024C69.5225 79.379 69.3983 79.5857 69.3178 79.8105C69.2373 80.0353 69.2021 80.2739 69.2143 80.5124C69.2264 80.7509 69.2856 80.9847 69.3885 81.2002C72.9704 88.7425 77.6431 95.7163 83.2564 101.897C92.9151 112.585 102.153 119.732 106.801 123.042C107.192 123.32 107.677 123.432 108.15 123.352C108.624 123.273 109.046 123.008 109.324 122.617C109.603 122.226 109.714 121.741 109.635 121.267C109.555 120.794 109.291 120.372 108.9 120.093L108.901 120.094Z" fill="#8B92A3"/>
<path d="M113.26 114.317C108.972 111.284 100.418 104.692 91.3145 94.6179C80.0423 82.1446 76.7699 70.4344 76.6364 69.9422C76.5104 69.4791 76.5736 68.9849 76.812 68.5683C77.0504 68.1517 77.4445 67.8469 77.9077 67.7209C78.3708 67.595 78.865 67.6581 79.2816 67.8965C79.6982 68.1349 80.003 68.5291 80.1289 68.9922C80.1602 69.1053 83.3808 80.4401 93.9997 92.1907C94.9025 93.1896 95.8394 94.1953 96.7845 95.1797C96.9485 95.3533 97.1453 95.4927 97.3634 95.5899C97.5816 95.6871 97.8169 95.7401 98.0556 95.7459C98.2944 95.7517 98.532 95.7102 98.7546 95.6238C98.9773 95.5374 99.1806 95.4077 99.3529 95.2423C99.5252 95.0769 99.663 94.879 99.7585 94.6601C99.8539 94.4412 99.9051 94.2055 99.9091 93.9667C99.913 93.7279 99.8696 93.4907 99.7814 93.2687C99.6932 93.0467 99.562 92.8444 99.3952 92.6734C98.4753 91.715 97.563 90.7363 96.6849 89.7641C86.7322 78.7502 83.6457 68.1277 83.6183 68.0315C83.4305 67.3438 83.109 66.6997 82.6723 66.1362C82.2356 65.5727 81.6922 65.1007 81.0731 64.7471C80.454 64.3936 79.7713 64.1655 79.064 64.0758C78.3567 63.9862 77.6387 64.0367 76.951 64.2245C76.2632 64.4123 75.6192 64.7337 75.0556 65.1704C74.4921 65.6071 74.0201 66.1506 73.6666 66.7697C73.3131 67.3888 73.085 68.0715 72.9953 68.7788C72.9056 69.486 72.9561 70.2041 73.1439 70.8918C73.2869 71.4184 76.7832 83.9372 88.6293 97.0454C97.9666 107.378 106.76 114.154 111.17 117.273C111.364 117.413 111.584 117.513 111.817 117.568C112.049 117.622 112.291 117.63 112.527 117.591C112.763 117.552 112.988 117.466 113.191 117.339C113.394 117.212 113.569 117.046 113.707 116.851C113.845 116.656 113.943 116.435 113.996 116.202C114.048 115.968 114.053 115.727 114.012 115.491C113.97 115.256 113.882 115.031 113.753 114.83C113.624 114.628 113.457 114.454 113.26 114.318V114.317Z" fill="#8B92A3"/>
<path d="M116.554 107.785C115.52 107.033 114.434 106.209 113.327 105.337C110.384 103.017 107.433 100.473 104.557 97.7755C104.384 97.6106 104.18 97.4816 103.957 97.3959C103.734 97.3101 103.496 97.2694 103.257 97.2761C103.018 97.2827 102.783 97.3366 102.565 97.4346C102.347 97.5326 102.151 97.6728 101.988 97.8471C101.824 98.0213 101.697 98.2262 101.613 98.45C101.529 98.6737 101.491 98.9118 101.499 99.1506C101.508 99.3893 101.564 99.624 101.664 99.8411C101.763 100.058 101.905 100.253 102.081 100.415C105.033 103.184 108.062 105.796 111.087 108.179C112.23 109.08 113.353 109.932 114.425 110.713C114.617 110.855 114.835 110.958 115.067 111.016C115.299 111.073 115.54 111.084 115.777 111.048C116.013 111.012 116.24 110.929 116.444 110.805C116.648 110.681 116.826 110.517 116.966 110.324C117.107 110.131 117.208 109.911 117.263 109.679C117.319 109.446 117.327 109.205 117.289 108.969C117.251 108.733 117.166 108.507 117.04 108.304C116.914 108.101 116.748 107.925 116.554 107.786V107.785Z" fill="#8B92A3"/>
<path d="M65.001 102H91.001V124H65.001V102Z" fill="#A898F5"/>
<path d="M76.5821 114.86V118.755C76.5821 119.54 77.2189 120.177 78.0049 120.177C78.7909 120.177 79.4278 119.54 79.4278 118.755V114.86C81.3096 114.257 82.6759 112.491 82.6759 110.411C82.6759 107.836 80.5805 105.74 78.0049 105.74C75.4294 105.74 73.334 107.836 73.334 110.411C73.334 112.491 74.7003 114.257 76.5821 114.86ZM78.0049 108.586C79.0114 108.586 79.8302 109.405 79.8302 110.411C79.8302 111.418 79.0114 112.237 78.0049 112.237C76.9985 112.237 76.1797 111.418 76.1797 110.411C76.1797 109.405 76.9987 108.586 78.0049 108.586Z" fill="#13151A"/>
<path d="M121.583 54.5462C121.027 53.9905 120.127 53.9905 119.571 54.5462L112.11 62.0073C109.708 60.5171 106.506 60.8113 104.423 62.894L98.923 68.3944C96.8412 70.4763 96.5462 73.6766 98.0343 76.0776L95.0619 79.0501C92.6609 77.562 89.4606 77.857 87.3787 79.9389L82.419 84.8984C81.0781 84.2674 79.5826 83.9126 78.0051 83.9126C76.4249 83.9126 74.9268 84.2683 73.5842 84.9014L68.6214 79.9387C66.5395 77.8568 63.3392 77.5618 60.9382 79.0499L57.9658 76.0774C59.4539 73.6764 59.1587 70.4761 57.077 68.3944L51.5766 62.894C49.4937 60.8113 46.2915 60.5169 43.8901 62.0071L36.4291 54.5462C35.8734 53.9905 34.9726 53.9904 34.4168 54.5462C33.8611 55.1019 33.8611 56.0028 34.4168 56.5583L41.879 64.0207C40.3933 66.4214 40.6891 69.62 42.7699 71.7007L48.2701 77.2009C49.484 78.4149 51.0788 79.022 52.6733 79.022C53.8133 79.022 54.9524 78.7101 55.9533 78.0897L58.9257 81.0622C57.4376 83.4632 57.7326 86.6635 59.8143 88.7454L65.3147 94.2458C65.9829 94.9138 66.7666 95.397 67.6019 95.6973V99.9943H65.0131C64.2271 99.9943 63.5902 100.631 63.5902 101.417V124.447C63.5902 125.233 64.2271 125.87 65.0131 125.87H90.9971C91.7831 125.87 92.4199 125.233 92.4199 124.447V101.417C92.4199 100.632 91.7831 99.9945 90.9971 99.9945H88.4081V95.6937C89.2396 95.393 90.0197 94.9111 90.685 94.2458L96.1852 88.7454C98.2669 86.6637 98.5619 83.4634 97.074 81.0624L100.046 78.0899C101.047 78.7103 102.186 79.022 103.326 79.022C104.921 79.022 106.516 78.4151 107.73 77.2009L113.23 71.7007C115.31 69.62 115.606 66.4216 114.121 64.0207L121.583 56.5583C122.139 56.0027 122.139 55.1017 121.583 54.5462ZM83.0921 88.7317C84.3296 89.8602 85.1911 91.3932 85.4667 93.1195C84.889 92.9768 84.3411 92.6841 83.8906 92.2335C82.9449 91.288 82.6813 89.918 83.0921 88.7317ZM72.1091 92.2335C71.6614 92.6812 71.1175 92.9732 70.5438 93.1168C70.8195 91.3955 71.6777 89.8662 72.9103 88.7393C73.3172 89.9237 73.053 91.29 72.1091 92.2335ZM50.2822 75.1888L44.782 69.6886C43.8241 68.731 43.5657 67.3379 43.9994 66.1414L46.7114 68.8533C46.9893 69.1312 47.3534 69.2701 47.7176 69.2701C48.0817 69.2701 48.4459 69.1312 48.7239 68.8533C49.2795 68.2976 49.2795 67.3967 48.7239 66.8412L46.0092 64.1264C47.2077 63.6887 48.6047 63.9466 49.5641 64.9061L55.0643 70.4065C56.0231 71.3651 56.2811 72.7601 55.8455 73.9576L53.3045 71.4165C52.7486 70.8609 51.8479 70.8609 51.2922 71.4165C50.7365 71.9722 50.7365 72.8732 51.2922 73.4286L53.8334 75.9699C52.6361 76.4055 51.2412 76.1474 50.2822 75.1888ZM61.8268 86.7333C60.868 85.7745 60.61 84.3795 61.0456 83.1822L63.5868 85.7234C63.8647 86.0012 64.229 86.1403 64.5931 86.1403C64.9571 86.1403 65.3214 86.0014 65.5993 85.7234C66.155 85.1678 66.155 84.2668 65.5993 83.7113L63.0581 81.1701C63.4322 81.0341 63.8245 80.9624 64.218 80.9624C65.0838 80.9624 65.9499 81.2921 66.6091 81.9512L71.1547 86.4967C69.3911 88.0438 68.154 90.1753 67.7486 92.5865C67.6015 92.4809 67.4593 92.3657 67.3272 92.2337L61.8268 86.7333ZM89.5744 123.024H66.4361V102.84H89.5744V123.024ZM70.4476 99.9945V96.0225C71.7912 95.8654 73.093 95.2742 74.1214 94.2458C76.0146 92.3524 76.4312 89.5335 75.3718 87.2324C76.1922 86.9264 77.0791 86.7583 78.0049 86.7583C78.9273 86.7583 79.8113 86.9251 80.6292 87.2288C79.5679 89.5306 79.9842 92.3515 81.8783 94.2458C82.9094 95.2769 84.2154 95.8682 85.5623 96.0236V99.9943H70.4476V99.9945ZM94.1729 86.7333L88.6727 92.2337C88.5433 92.3631 88.4043 92.4759 88.2604 92.5797C87.8535 90.1686 86.6149 88.0378 84.85 86.4918L89.391 81.9512C90.0502 81.2919 90.9161 80.9624 91.7821 80.9624C92.1754 80.9624 92.5679 81.0341 92.942 81.1701L90.4008 83.7113C89.8451 84.267 89.8451 85.168 90.4008 85.7234C90.6787 86.0012 91.043 86.1403 91.407 86.1403C91.7711 86.1403 92.1354 86.0014 92.4133 85.7234L94.9543 83.1824C95.3897 84.3795 95.1317 85.7745 94.1729 86.7333ZM111.218 69.6886L105.718 75.1888C104.759 76.1474 103.364 76.4055 102.167 75.9699L104.708 73.4286C105.264 72.873 105.264 71.972 104.708 71.4165C104.152 70.8609 103.251 70.8609 102.696 71.4165L100.154 73.9578C99.7188 72.7605 99.9768 71.3653 100.936 70.4067L106.436 64.9065C107.095 64.2471 107.961 63.9177 108.827 63.9177C109.222 63.9177 109.615 63.9898 109.991 64.1268L107.276 66.8412C106.721 67.3969 106.721 68.2978 107.276 68.8533C107.554 69.1311 107.918 69.2701 108.282 69.2701C108.647 69.2701 109.011 69.1312 109.289 68.8533L112.001 66.1415C112.434 67.3379 112.175 68.7308 111.218 69.6886Z" fill="#13151A"/>
</svg>
