<svg width="157" height="156" viewBox="0 0 157 156" fill="none" xmlns="http://www.w3.org/2000/svg">
<path d="M39.6669 88.4005C39.6669 85.2943 39.1098 80.8608 41.6163 78.6502C43.7702 76.7506 47.4293 78.0005 50.0669 78.0005H107.267C113.011 78.0005 117.667 82.6567 117.667 88.4005V124.8C117.667 130.544 113.011 135.2 107.267 135.2H50.0669C44.3231 135.2 39.6669 130.544 39.6669 124.8V88.4005Z" fill="#A898F5"/>
<path d="M109.371 61.6885H90.1806V65.5265H109.371C112.545 65.5265 115.128 68.1093 115.128 71.2837V79.0097C113.52 77.791 111.539 77.041 109.371 77.041H47.9624C44.7884 77.041 42.2052 74.4581 42.2052 71.2837C42.2052 68.1093 44.7884 65.5265 47.9624 65.5265H69.0717V61.6885H47.9624C42.6719 61.6885 38.3672 65.9928 38.3672 71.2837V126.935C38.3672 132.225 42.6715 136.53 47.9624 136.53H109.371C114.661 136.53 118.966 132.226 118.966 126.935V121.178V94.3114V86.6354V71.2833C118.966 65.9928 114.661 61.6885 109.371 61.6885ZM115.128 117.34H92.0994C86.8089 117.34 82.5042 113.036 82.5042 107.745C82.5042 102.454 86.8085 98.1494 92.0994 98.1494H115.128V117.34ZM115.128 94.3118H92.0994C84.692 94.3118 78.6662 100.339 78.6662 107.745C78.6662 115.151 84.692 121.178 92.0994 121.178H115.128V126.935C115.128 130.109 112.545 132.692 109.37 132.692H47.962C44.788 132.692 42.2048 130.109 42.2048 126.935V78.9557C43.8092 80.1625 45.8029 80.8786 47.962 80.8786H109.37C112.544 80.8786 115.128 83.4614 115.128 86.6358V94.3118Z" fill="#13151A"/>
<path d="M109.371 69.3643H47.9629V73.2023H109.371V69.3643Z" fill="#13151A"/>
<path d="M78.6665 71.2837C87.1452 71.2837 94.0186 64.4104 94.0186 55.9317C94.0186 47.4529 87.1452 40.5796 78.6665 40.5796C70.1878 40.5796 63.3145 47.4529 63.3145 55.9317C63.3145 64.4104 70.1878 71.2837 78.6665 71.2837Z" fill="#CCC3FA"/>
<path d="M80.5855 61.6888H76.7475C75.69 61.6888 74.8283 60.827 74.8283 59.7696H70.9902C70.9902 62.9435 73.5731 65.5268 76.7475 65.5268V67.446H80.5855V65.5268C83.7595 65.5268 86.3427 62.9439 86.3427 59.7696C86.3427 56.5952 83.7599 54.0123 80.5855 54.0123H76.7475C75.69 54.0123 74.8283 53.1506 74.8283 52.0931C74.8283 51.0357 75.69 50.1747 76.7475 50.1747H80.5855C81.6429 50.1747 82.5047 51.0365 82.5047 52.0939H86.3427C86.3427 48.9199 83.7599 46.3367 80.5855 46.3367V44.4175H76.7475V46.3367C73.5735 46.3367 70.9902 48.9195 70.9902 52.0939C70.9902 55.2683 73.5731 57.8512 76.7475 57.8512H80.5855C81.6429 57.8512 82.5047 58.7129 82.5047 59.7704C82.5047 60.8278 81.6429 61.6888 80.5855 61.6888Z" fill="#13151A"/>
<path d="M86.3428 107.745C86.3428 110.919 88.9256 113.502 92.1 113.502C95.2744 113.502 97.8572 110.919 97.8572 107.745C97.8572 104.57 95.2744 101.987 92.1 101.987C88.9256 101.987 86.3428 104.571 86.3428 107.745ZM94.0188 107.745C94.0188 108.804 93.1571 109.664 92.0996 109.664C91.0421 109.664 90.1804 108.804 90.1804 107.745C90.1804 106.685 91.0421 105.825 92.0996 105.825C93.1571 105.825 94.0188 106.685 94.0188 107.745Z" fill="#13151A"/>
<path d="M80.5861 19.4702H76.748V34.8223H80.5861V19.4702Z" fill="#13151A"/>
<path d="M94.0187 25.2275H90.1807V40.5796H94.0187V25.2275Z" fill="#13151A"/>
<path d="M67.1525 29.0654H63.3145V40.5795H67.1525V29.0654Z" fill="#13151A"/>
</svg>
