<svg width="121" height="120" viewBox="0 0 121 120" fill="none" xmlns="http://www.w3.org/2000/svg">
<g clip-path="url(#clip0_2609_7754)">
<path d="M60.3329 56.8813H16.9781C15.2671 56.8813 13.8813 58.2672 13.8813 59.9781V103.333C13.8813 105.044 15.2671 106.43 16.9781 106.43H60.3329C62.0439 106.43 63.4297 105.044 63.4297 103.333V59.9781C63.4297 58.2672 62.0439 56.8813 60.3329 56.8813Z" fill="#A898F5"/>
<path d="M16.9782 55.3331H47.6177L41.5325 49.2479C40.6762 48.3932 40.204 47.2536 40.204 46.0427C40.204 44.8319 40.6762 43.6923 41.5309 42.8391L71.0633 13.3052C72.7758 11.5942 75.7642 11.5942 77.4737 13.3052L107.006 42.8376C107.861 43.6923 108.333 44.8319 108.333 46.0427C108.333 47.2536 107.861 48.3932 107.006 49.2464L77.4737 78.7803C76.6189 79.635 75.4793 80.1073 74.2685 80.1073C73.0577 80.1073 71.918 79.635 71.0649 78.7803L64.9782 72.6936V103.333C64.9782 105.894 62.894 107.978 60.333 107.978H16.9782C14.4171 107.978 12.333 105.894 12.333 103.333V59.9782C12.333 57.4172 14.4171 55.3331 16.9782 55.3331ZM17.4318 100.69L19.6213 102.879L17.6192 104.881H59.692L47.3049 92.4944H30.0063L21.1681 101.333L18.9787 99.1431L27.8169 90.3049V73.0064L15.4298 60.6193V102.692L17.4318 100.69ZM30.0063 70.8169H47.3049L59.692 58.4298H17.6192L30.0063 70.8169ZM30.9137 73.9137V89.3976H46.3975V73.9137H30.9137ZM49.4943 73.0064V90.3049L61.8814 102.692V60.6193L49.4943 73.0064ZM74.2685 56.2404L84.4662 46.0427L74.2685 35.8451L64.0708 46.0427L74.2685 56.2404ZM75.8169 16.0304V33.0146L87.4066 44.6043V44.4944H104.282L75.8169 16.0304ZM104.281 47.5911H87.4081V47.4812L75.8169 59.0709V76.0567L104.281 47.5911ZM72.7201 76.0551V59.0709L61.1304 47.4812V47.5911H51.0427V44.4944H61.1304V44.6043L72.7201 33.0146V16.0288L44.2561 44.4944H47.9459V47.5911H44.2546L51.9965 55.3331H60.333C62.894 55.3331 64.9782 57.4172 64.9782 59.9782V68.3148L72.7201 76.0551Z" fill="#13151A"/>
</g>
<g clip-path="url(#clip1_2609_7754)">
<path d="M108.15 102.833L100.475 95.1657L107.811 92.3869C108.11 92.2733 108.305 91.9822 108.295 91.6621C108.285 91.3421 108.073 91.0634 107.767 90.9689L85.3043 84.0336C85.0373 83.9512 84.7495 84.023 84.5528 84.22C84.3561 84.4167 84.2844 84.706 84.3664 84.9715L91.3017 107.434C91.3962 107.74 91.6749 107.952 91.9949 107.962C92.3238 107.972 92.6065 107.778 92.7197 107.478L95.4985 100.142L103.166 107.818C103.306 107.959 103.497 108.038 103.696 108.038C103.895 108.038 104.086 107.959 104.227 107.818L108.151 103.894C108.291 103.753 108.37 103.563 108.37 103.363C108.37 103.164 108.291 102.974 108.15 102.833Z" fill="#13151A"/>
</g>
<defs>
<clipPath id="clip0_2609_7754">
<rect width="96" height="96" fill="white" transform="matrix(-1 0 0 1 108.333 12)"/>
</clipPath>
<clipPath id="clip1_2609_7754">
<rect width="24" height="24" fill="white" transform="translate(84.333 84)"/>
</clipPath>
</defs>
</svg>
