<svg width="120" height="120" viewBox="0 0 120 120" fill="none" xmlns="http://www.w3.org/2000/svg">
<g clip-path="url(#clip0_2609_7755)">
<path d="M50.6397 33.6777L52.1102 46.932C46.6598 43.7732 42.7118 37.8428 40.4512 33.6777H50.6397Z" fill="#A898F5"/>
<path d="M69.2213 33.6777H79.4098C77.1492 37.8428 73.2004 43.7732 67.75 46.932L69.2213 33.6777Z" fill="#A898F5"/>
<path d="M61.4787 38.323L66.1239 47.6133L66.1859 47.7524C64.2655 48.6355 62.1751 49.1617 59.9304 49.1617C57.6849 49.1617 55.5944 48.6355 53.6748 47.7524L53.7368 47.6133L58.382 38.323L58.3971 38.2148C58.8931 38.292 59.4041 38.323 59.9304 38.323C60.4566 38.323 60.9676 38.292 61.4629 38.2148L61.4787 38.323Z" fill="#A898F5"/>
<path d="M89.4734 31.7271L101.737 35.226C101.535 35.7371 101.334 36.2633 92.2451 52.0882L81.8857 43.2001C83.9142 40.5993 85.8036 37.8896 87.538 35.0711L89.3495 32.1293L89.4734 31.7271Z" fill="#A898F5"/>
<path d="M59.9304 75.4839L56.7248 74.1986C52.3896 72.4642 48.2706 70.2966 44.4307 67.7729L44.4465 67.7419L50.6401 56.9032L50.9493 56.5312L59.9304 63.0968C60.8127 62.5396 61.6799 61.9665 62.5312 61.3624C64.7306 59.8609 66.8672 58.2505 68.9108 56.5312L69.2207 56.9032L75.4143 67.7419L75.4294 67.7729C71.5894 70.2966 67.4712 72.4642 63.1353 74.1986L59.9304 75.4839Z" fill="#A898F5"/>
<path d="M37.9741 43.2001L27.6155 52.0882C23.6984 46.9939 20.4927 41.3266 18.124 35.226L30.3871 31.7271L30.5111 32.1293L32.3226 35.0711C34.057 37.8896 35.9456 40.5993 37.9741 43.2001Z" fill="#A898F5"/>
<path d="M25.8662 38.3228H28.963V41.4195H25.8662V38.3228Z" fill="#13151A"/>
<path d="M38.2529 53.8066H41.3497V56.9034H38.2529V53.8066Z" fill="#13151A"/>
<path d="M58.3818 67.7417H61.4786V70.8385H58.3818V67.7417Z" fill="#13151A"/>
<path d="M103.18 35.786L103.796 34.2036L74.1396 25.7298C72.1549 25.1628 70.7691 23.3248 70.7691 21.2623V12H49.0917V21.2623C49.0917 23.3248 47.7058 25.1628 45.722 25.7298L16.0645 34.2036L16.6806 35.786C18.322 40.0071 20.377 44.0224 22.7691 47.8065V61.8334C20.9712 62.4745 19.6723 64.1779 19.6723 66.1936C19.6723 68.7543 21.756 70.8387 24.3175 70.8387C26.8782 70.8387 28.9626 68.7543 28.9626 66.1936C28.9626 64.1779 27.6637 62.4745 25.8659 61.8334V52.311C29.0352 56.5577 32.6741 60.4317 36.7046 63.8649V77.3173C34.9067 77.9584 33.6078 79.6618 33.6078 81.6774C33.6078 84.2382 35.6915 86.3226 38.253 86.3226C40.8137 86.3226 42.8981 84.2382 42.8981 81.6774C42.8981 79.6618 41.5992 77.9584 39.8014 77.3173V66.3621C44.7807 70.1416 50.2666 73.2868 56.1539 75.6404L58.382 76.5318V83.3324C52.2814 84.099 47.5433 89.3082 47.5433 95.6129C47.5433 102.443 53.1002 108 59.9304 108C66.7605 108 72.3175 102.443 72.3175 95.6129C72.3175 89.3082 67.5793 84.099 61.4788 83.3324V76.5318L63.7069 75.6404C69.5919 73.2868 75.0793 70.1416 80.0594 66.3621V77.3173C78.2615 77.9584 76.9627 79.6618 76.9627 81.6774C76.9627 84.2382 79.0463 86.3226 81.6078 86.3226C84.1685 86.3226 86.253 84.2382 86.253 81.6774C86.253 79.6618 84.9541 77.9584 83.1562 77.3173V63.8649C87.1867 60.4317 90.8256 56.5562 93.9949 52.311V61.8334C92.197 62.4745 90.8981 64.1779 90.8981 66.1936C90.8981 68.7543 92.9818 70.8387 95.5433 70.8387C98.104 70.8387 100.188 68.7543 100.188 66.1936C100.188 64.1779 98.8896 62.4745 97.0917 61.8334V47.8065C99.4838 44.0224 101.539 40.0071 103.18 35.786ZM24.3175 67.7419C23.4624 67.7419 22.7691 67.0479 22.7691 66.1936C22.7691 65.3392 23.4624 64.6452 24.3175 64.6452C25.1718 64.6452 25.8659 65.3392 25.8659 66.1936C25.8659 67.0479 25.1718 67.7419 24.3175 67.7419ZM38.253 83.2258C37.3979 83.2258 36.7046 82.5318 36.7046 81.6774C36.7046 80.8231 37.3979 80.129 38.253 80.129C39.1073 80.129 39.8014 80.8231 39.8014 81.6774C39.8014 82.5318 39.1073 83.2258 38.253 83.2258ZM81.6078 83.2258C80.7527 83.2258 80.0594 82.5318 80.0594 81.6774C80.0594 80.8231 80.7527 80.129 81.6078 80.129C82.4622 80.129 83.1562 80.8231 83.1562 81.6774C83.1562 82.5318 82.4622 83.2258 81.6078 83.2258ZM95.5433 67.7419C94.6882 67.7419 93.9949 67.0479 93.9949 66.1936C93.9949 65.3392 94.6882 64.6452 95.5433 64.6452C96.3976 64.6452 97.0917 65.3392 97.0917 66.1936C97.0917 67.0479 96.3976 67.7419 95.5433 67.7419ZM63.0272 55.3548C63.0272 57.8725 61.6088 60 59.9304 60C58.252 60 56.8336 57.8725 56.8336 55.3548C56.8336 52.8372 58.252 50.7097 59.9304 50.7097C61.6088 50.7097 63.0272 52.8372 63.0272 55.3548ZM53.8593 56.8586C45.8679 50.5766 38.9531 42.8937 33.6373 34.252L32.6695 32.6802L37.5332 31.2913C39.5352 35.7029 45.6063 47.2167 55.4372 50.058C54.3901 51.4453 53.7368 53.3014 53.7368 55.3548C53.7368 55.869 53.7814 56.3702 53.8593 56.8586ZM64.4236 50.058C74.2545 47.2167 80.3256 35.7029 82.3276 31.2913L87.1912 32.6802L86.2235 34.252C80.9077 42.8937 73.9929 50.5751 66.0015 56.8586C66.0786 56.3702 66.1239 55.869 66.1239 55.3548C66.1239 53.3014 65.4707 51.4453 64.4236 50.058ZM52.1885 21.2623V15.0968H67.6723V21.2623C67.6723 23.7089 68.8555 25.9476 70.7207 27.3863C70.1575 29.0413 67.1393 36.7742 59.9304 36.7742C52.6602 36.7742 49.7018 29.0822 49.1378 27.3894C51.0037 25.9506 52.1885 23.7104 52.1885 21.2623ZM46.345 28.7737C47.3437 31.5204 51.0997 39.871 59.9304 39.871C68.7625 39.871 72.5171 31.5204 73.5158 28.7737L79.3034 30.4272C77.0088 35.2984 70.1915 47.6129 59.9304 47.6129C49.6874 47.6129 42.8581 35.2969 40.5582 30.4272L46.345 28.7737ZM59.9304 86.3226C62.2726 86.3226 64.41 87.2004 66.0461 88.6376C65.6643 91.689 63.0846 94.0645 59.9304 94.0645C56.7762 94.0645 54.1965 91.689 53.814 88.6376C55.4508 87.2004 57.5874 86.3226 59.9304 86.3226ZM59.9304 104.903C54.8066 104.903 50.6401 100.737 50.6401 95.6129C50.6401 94.2301 50.9508 92.9221 51.4959 91.7419C52.9672 94.9347 56.1895 97.1613 59.9304 97.1613C63.6713 97.1613 66.8936 94.9347 68.3641 91.7419C68.9092 92.9221 69.2207 94.2301 69.2207 95.6129C69.2207 100.737 65.0541 104.903 59.9304 104.903ZM62.5577 72.7651L59.9304 73.816L57.3024 72.7651C40.5816 66.0771 27.1428 52.8198 20.2031 36.2412L29.5773 33.564L31.0002 35.876C38.042 47.3218 47.7588 57.1867 59.0987 64.404L59.9304 64.9332L60.762 64.404C72.102 57.1867 81.8195 47.3218 88.8606 35.876L90.2835 33.564L99.6554 36.2412C92.7172 52.8198 79.2792 66.0771 62.5577 72.7651Z" fill="#13151A"/>
<path d="M90.8984 38.3228H93.9952V41.4195H90.8984V38.3228Z" fill="#13151A"/>
<path d="M78.5107 53.8066H81.6075V56.9034H78.5107V53.8066Z" fill="#13151A"/>
</g>
<defs>
<clipPath id="clip0_2609_7755">
<rect width="96" height="96" fill="white" transform="translate(12 12)"/>
</clipPath>
</defs>
</svg>
