<svg width="121" height="120" viewBox="0 0 121 120" fill="none" xmlns="http://www.w3.org/2000/svg">
<path d="M83.6816 23.2773L46.6816 45.2773V59.7773L54.6816 64.2773V51.2773L92.6816 28.7773L83.6816 23.2773Z" fill="#A898F5" stroke="#13151A"/>
<path d="M49.6816 86.2773C49.6816 95.9423 41.8466 103.777 32.1816 103.777C22.5167 103.777 14.6816 95.9423 14.6816 86.2773C14.6816 76.6124 22.5167 68.7773 32.1816 68.7773C41.8466 68.7773 49.6816 76.6124 49.6816 86.2773Z" fill="#A898F5"/>
<path d="M107.949 35.8091L84.9933 22.5809C84.9427 22.5472 84.8902 22.5172 84.8358 22.4909L70.4452 14.1997C69.9821 13.9334 69.4121 13.9334 68.9489 14.1997L31.4527 35.8091C30.9877 36.0772 30.7027 36.5722 30.7027 37.1084V66.4784C27.8302 66.7016 25.0214 67.5659 22.4546 69.0491C17.9283 71.6609 14.6921 75.8797 13.3421 80.9253C11.9883 85.9709 12.6821 91.2434 15.2939 95.7678C17.9077 100.294 22.1264 103.53 27.1721 104.88C28.8577 105.332 30.5677 105.555 32.2664 105.555C35.6546 105.555 38.9996 104.667 42.0127 102.927C46.0439 100.6 49.0533 96.9959 50.6189 92.6684L68.9489 103.232C69.1814 103.365 69.4383 103.433 69.6971 103.433C69.9558 103.433 70.2146 103.365 70.4452 103.232L107.947 81.6209C108.412 81.3528 108.697 80.8578 108.697 80.3216V37.1084C108.699 36.5722 108.412 36.0772 107.949 35.8091ZM37.2971 67.0934C36.1046 66.7747 34.9027 66.5722 33.6989 66.4784V39.7034L45.1533 46.3016V60.0153C45.1533 60.5516 45.4402 61.0466 45.9033 61.3147L54.4983 66.2628C54.7289 66.3959 54.9877 66.4634 55.2464 66.4634C55.5052 66.4634 55.7639 66.3959 55.9964 66.2628C56.4596 65.9947 56.7446 65.4997 56.7446 64.9653V52.9803L68.3677 59.6834C68.2608 59.8897 68.1989 60.1241 68.1989 60.3734V99.1334C68.1989 99.2084 68.2064 99.2797 68.2158 99.3509L51.4421 89.6834C53.3677 79.7084 47.2589 69.7634 37.2971 67.0934ZM89.7258 28.7684L54.4983 49.0634C54.0764 49.3072 53.8046 49.7384 53.7577 50.2166C53.7521 50.2634 53.7502 50.3084 53.7483 50.3553V50.3628V62.3703L48.1514 59.1472V46.3222L84.1721 25.5659L89.7258 28.7684ZM69.6971 56.9891L58.2277 50.3759L92.7277 30.4972L104.195 37.1047L69.6971 56.9891ZM69.6971 17.2278L81.1702 23.8391L46.6721 43.7159L35.2008 37.1084L69.6971 17.2278ZM40.5146 100.332C36.6821 102.544 32.2196 103.131 27.9483 101.985C23.6752 100.842 20.1033 98.1022 17.8908 94.2697C15.6783 90.4372 15.0914 85.9728 16.2371 81.6997C17.3808 77.4266 20.1202 73.8566 23.9527 71.6441C26.4839 70.1834 29.2889 69.4316 32.1352 69.4184C32.1577 69.4203 32.1783 69.4222 32.2008 69.4222C32.2252 69.4222 32.2477 69.4203 32.2721 69.4184C33.6896 69.4241 35.1164 69.6116 36.5227 69.9866C45.3427 72.3509 50.5964 81.4503 48.2358 90.2722C47.0883 94.5472 44.3471 98.1191 40.5146 100.332ZM71.1783 99.3509C71.1896 99.2797 71.1952 99.2066 71.1952 99.1334V60.3716C71.1952 60.1222 71.1333 59.8878 71.0264 59.6816L105.701 39.6978V79.4572L71.1783 99.3509ZM42.7871 87.9978C42.7871 92.0534 39.4871 95.3534 35.4314 95.3534H32.1727C31.3458 95.3534 30.6746 94.6822 30.6746 93.8553C30.6746 93.0284 31.3458 92.3572 32.1727 92.3572H35.4314C37.8352 92.3572 39.7889 90.4016 39.7889 87.9997C39.7889 85.5941 37.8333 83.6366 35.4314 83.6366H26.7933L28.2521 85.0953C28.8371 85.6803 28.8371 86.6291 28.2521 87.2141C27.9596 87.5066 27.5752 87.6528 27.1927 87.6528C26.8102 87.6528 26.4258 87.5066 26.1333 87.2141L22.1152 83.1959C21.8339 82.9147 21.6764 82.5341 21.6764 82.1366C21.6764 81.7391 21.8339 81.3584 22.1152 81.0772L26.1333 77.0591C26.7183 76.4741 27.6671 76.4741 28.2521 77.0591C28.8371 77.6441 28.8371 78.5928 28.2521 79.1778L26.7933 80.6366H35.4314C39.4889 80.6366 42.7871 83.9384 42.7871 87.9978Z" fill="#13151A" stroke="#13151A" stroke-width="0.5"/>
</svg>
