<svg width="20" height="20" viewBox="0 0 20 20" fill="none" xmlns="http://www.w3.org/2000/svg">
<path d="M6.45835 15.4167C3.47502 15.4167 1.04169 12.9833 1.04169 10C1.04169 7.01667 3.47502 4.58333 6.45835 4.58333C6.80002 4.58333 7.08335 4.86667 7.08335 5.20833C7.08335 5.55 6.80002 5.83333 6.45835 5.83333C4.15835 5.83333 2.29169 7.7 2.29169 10C2.29169 12.3 4.15835 14.1667 6.45835 14.1667C8.75835 14.1667 10.625 12.3 10.625 10C10.625 9.65833 10.9084 9.375 11.25 9.375C11.5917 9.375 11.875 9.65833 11.875 10C11.875 12.9833 9.44169 15.4167 6.45835 15.4167Z" fill="#13151A"/>
<path d="M13.3333 15.625C12.9916 15.625 12.7083 15.3417 12.7083 15C12.7083 14.6583 12.9916 14.375 13.3333 14.375C15.7416 14.375 17.7083 12.4083 17.7083 10C17.7083 7.59167 15.7416 5.625 13.3333 5.625C10.925 5.625 8.95831 7.59167 8.95831 10C8.95831 10.3417 8.67498 10.625 8.33331 10.625C7.99165 10.625 7.70831 10.3417 7.70831 10C7.70831 6.9 10.2333 4.375 13.3333 4.375C16.4333 4.375 18.9583 6.9 18.9583 10C18.9583 13.1 16.4333 15.625 13.3333 15.625Z" fill="#13151A"/>
</svg>
