<svg width="151" height="40" viewBox="0 0 151 40" fill="none" xmlns="http://www.w3.org/2000/svg">
<path d="M62.2893 35.0664C62.2893 35.4119 62.2207 35.7073 62.0889 35.9525C61.9623 36.1978 61.783 36.3877 61.5509 36.5221C61.3188 36.654 61.0551 36.7252 60.7598 36.7331V36.174C61.0551 36.1582 61.2872 36.058 61.456 35.8681C61.63 35.6783 61.7197 35.404 61.7197 35.0454V31.5432H62.2893V35.0664Z" fill="#0B0139"/>
<path d="M69.1035 31.5432V32.0918H66.8883V33.3998H68.8714V33.9589H66.8883V35.288H69.1879V35.847H66.3081V31.5432H69.1035Z" fill="#0B0139"/>
<path d="M76.4204 36.037L75.4078 33.4631L74.3107 36.0475L72.5913 31.5538H73.2664L74.3846 34.6867L75.123 32.7353L74.6694 31.5538H75.239L76.4415 34.6235L77.4964 31.5538H78.1187L76.4204 36.037Z" fill="#0B0139"/>
<path d="M84.5458 31.5432V32.0918H82.3307V33.3998H84.3138V33.9589H82.3307V35.288H84.6302V35.847H81.7505V31.5432H84.5458Z" fill="#0B0139"/>
<path d="M88.9937 31.5432V35.288H91.1773V35.847H88.4136V31.5432H88.9937Z" fill="#0B0139"/>
<path d="M97.2655 35.847L96.2528 34.2542C96.2159 34.2621 96.1685 34.2648 96.1052 34.2648H95.4723V35.847H94.8921V31.5432H96.0419C96.3372 31.5432 96.5957 31.596 96.8225 31.7015C97.0545 31.8017 97.2339 31.952 97.3604 32.1551C97.4923 32.3528 97.5609 32.5928 97.5609 32.8724C97.5609 33.1413 97.5002 33.3866 97.3815 33.6108C97.2681 33.8296 97.0915 33.9984 96.8541 34.1171L97.9301 35.847H97.2655ZM96.0946 33.7057C96.4032 33.7057 96.6247 33.6266 96.7592 33.4631C96.8989 33.2943 96.9701 33.1044 96.9701 32.8935C96.9701 32.7669 96.9411 32.6456 96.8858 32.5243C96.8277 32.3977 96.7381 32.2975 96.6115 32.2183C96.4849 32.134 96.3267 32.0918 96.1368 32.0918H95.4723V33.7057H96.0946Z" fill="#0B0139"/>
<path d="M104.93 31.5432L103.317 34.4124V35.847H102.736V34.4124L101.144 31.5432H101.861L103.042 33.7584L104.224 31.5432H104.93Z" fill="#0B0139"/>
<path d="M115.521 35.847L114.509 34.2542C114.472 34.2621 114.424 34.2648 114.361 34.2648H113.728V35.847H113.148V31.5432H114.298C114.593 31.5432 114.852 31.596 115.078 31.7015C115.31 31.8017 115.49 31.952 115.616 32.1551C115.748 32.3528 115.817 32.5928 115.817 32.8724C115.817 33.1413 115.756 33.3866 115.637 33.6108C115.524 33.8296 115.347 33.9984 115.11 34.1171L116.186 35.847H115.521ZM114.35 33.7057C114.659 33.7057 114.881 33.6266 115.015 33.4631C115.155 33.2943 115.226 33.1044 115.226 32.8935C115.226 32.7669 115.197 32.6456 115.142 32.5243C115.084 32.3977 114.994 32.2975 114.867 32.2183C114.741 32.134 114.583 32.0918 114.393 32.0918H113.728V33.7057H114.35Z" fill="#0B0139"/>
<path d="M122.648 31.5432V32.0918H120.433V33.3998H122.416V33.9589H120.433V35.288H122.733V35.847H119.853V31.5432H122.648Z" fill="#0B0139"/>
<path d="M130.271 31.5433V35.9948H130.25L127.086 32.7775L127.096 35.8471H126.516V31.4062H126.548L129.702 34.6551L129.691 31.5433H130.271Z" fill="#0B0139"/>
<path d="M136.824 31.5432V32.0918H135.664V35.847H135.095V32.0918H133.966V31.5432H136.824Z" fill="#0B0139"/>
<path d="M142.78 34.7184H141.124L140.659 35.8471H140.09L141.978 31.364H142.01L143.898 35.8471H143.223L142.78 34.7184ZM142.579 34.2121L141.967 32.6403L141.335 34.2121H142.579Z" fill="#0B0139"/>
<path d="M148.052 31.5432V35.288H150.235V35.847H147.472V31.5432H148.052Z" fill="#0B0139"/>
<path d="M34.5834 3.91342L39.4256 1.40688L42.4853 6.40251L40.5239 1.40688L49.8469 9.96334L40.3414 0.0768022L11.1547 0L38.1694 1.09269L34.5834 3.91342ZM16.3794 11.6774L22.8287 4.18223L16.6145 9.89352L11.481 0.754058L16.3794 11.6774ZM10.2775 16.1459L2.94043 12.2953L13.8284 11.7752L2.44568 11.4191L9.47393 7.39745L2.47726 10.5394L10.1827 1.14156L0 11.6041L21.2041 35.0044L2.56498 12.8015L10.2775 16.1459ZM28.3622 35.3186L37.0817 20.1082L27.1025 36.6277L26.4709 37.2805L35.0851 13.6184L41.0151 18.7153L35.7764 13.0703L50.6329 11.3807H36.6045L42.1976 7.64531L35.8711 10.9583L39.2782 2.3704L34.7027 9.99127L34.2325 4.93629L33.9693 10.0576L26.341 1.19393L32.671 10.6825L26.2919 7.56153L32.4149 11.4575L17.0426 11.6809L32.4605 13.025L26.6463 17.9263L32.9588 13.8768L26.2884 37.4725L25.9445 37.8286L17.4285 15.0009L24.727 37.0745L15.2495 21.351L25.6919 39.993L25.6954 39.9965V40V39.993L50.254 12.5816L28.3622 35.3186ZM35.1027 11.3597L35.0957 11.3667L35.0886 11.3563L35.1027 11.3597Z" fill="#0B0139"/>
<path d="M72.5651 3.60474H60.6875V23.8052H61.8689V14.3009H70.044V13.109H61.8689V4.79672H73.1559V3.60474H72.5651Z" fill="#0B0139"/>
<path d="M75.8561 23.4465L83.6409 5.68283L91.4257 23.4465L91.5734 23.8052H92.8814L92.4911 22.9719L84.1789 3.96342L84.0312 3.60477H83.2611L83.1029 3.96342L74.7907 22.9719L74.4004 23.8052H75.7084L75.8561 23.4465Z" fill="#0B0139"/>
<path d="M97.6863 23.2145V6.04148L110.25 23.5626L110.429 23.8052H111.326V23.2145L111.357 4.19548V3.60477H110.165V4.19548L110.134 21.3685L97.5703 3.84738L97.391 3.60477H96.5049V23.8052H97.6863V23.2145Z" fill="#0B0139"/>
<path d="M131.425 18.9318C130.671 20.2187 129.506 21.2208 127.923 21.9381C126.874 22.389 125.835 22.6132 124.801 22.6132C122.628 22.6132 120.787 21.7139 119.284 19.9128C117.813 18.1696 117.079 16.1021 117.079 13.7103C117.079 11.1522 117.881 8.99243 119.484 7.23346C120.988 5.63008 122.76 4.81785 124.801 4.79675C126.663 4.79675 128.348 5.41911 129.854 6.66384C130.508 7.24137 131.003 7.84527 131.341 8.47818L132.406 7.94021C131.694 6.57681 130.489 5.45867 128.788 4.58578C127.48 3.93177 126.151 3.60477 124.801 3.60477C122.388 3.60477 120.32 4.55413 118.598 6.45287C116.797 8.43599 115.898 10.8569 115.898 13.7103C115.898 16.5795 116.797 18.9951 118.598 20.9571C120.342 22.8347 122.409 23.7841 124.801 23.8052C126.945 23.8052 128.907 23.0642 130.687 21.5795C131.439 20.9254 132.021 20.2398 132.438 19.5225L131.425 18.9318Z" fill="#0B0139"/>
<path d="M142.771 13.879L148.868 4.52249L149.459 3.60477H148.035L147.855 3.86848L142.18 12.6343L136.389 3.86848L136.21 3.60477H134.786L135.376 4.52249L141.589 13.879V23.8052H142.771V13.879Z" fill="#0B0139"/>
</svg>
