<svg width="64" height="64" viewBox="0 0 64 64" fill="none" xmlns="http://www.w3.org/2000/svg">
<path d="M54.845 43.9355C54.1759 43.7687 53.4969 44.1768 53.3302 44.8466C50.8898 54.6519 42.1183 61.5 31.9995 61.5C19.8797 61.5 10.0194 51.6397 10.0194 39.5199C10.0194 27.4 19.8797 17.5397 31.9995 17.5397C41.9709 17.5397 50.7107 24.2641 53.2528 33.8918C53.276 33.9799 53.2988 34.0682 53.321 34.1567C53.4892 34.8262 54.1678 35.233 54.8378 35.0649C55.5073 34.8968 55.9139 34.2179 55.7459 33.5481C55.7213 33.45 55.696 33.352 55.6702 33.2539C53.2737 24.1775 45.9332 17.418 37.0017 15.5549L42.9709 9.58562C43.459 9.0975 43.459 8.306 42.9709 7.81775L35.519 0.366125C35.2845 0.13175 34.9667 0 34.6352 0H29.3639C29.0324 0 28.7145 0.13175 28.48 0.366125L21.0283 7.81787C20.7939 8.05237 20.6622 8.37025 20.6622 8.70175C20.6622 9.03325 20.7939 9.35112 21.0283 9.58562L26.9965 15.5538C15.8894 17.8694 7.51953 27.7355 7.51953 39.5199C7.51941 53.0182 18.5012 64 31.9995 64C37.5744 64 42.8262 62.1744 47.1872 58.7204C51.417 55.3703 54.4603 50.6576 55.7562 45.4505C55.9229 44.7805 55.5149 44.1023 54.845 43.9355ZM31.9995 14.0839L30.3728 8.18087H33.626L31.9995 14.0839ZM34.4617 14.5592L36.2193 8.181H39.7982L40.319 8.70187L34.4617 14.5592ZM29.8818 2.5H34.1174L37.2983 5.68087H26.7009L29.8818 2.5ZM24.2008 8.18087H27.7797L29.5373 14.559L23.6799 8.70175L24.2008 8.18087Z" fill="#13151A"/>
<path d="M55.2311 38.2699H55.2298C54.5396 38.2699 53.9805 38.8296 53.9805 39.5199C53.9805 40.2101 54.5407 40.7699 55.2311 40.7699C55.9215 40.7699 56.4811 40.2101 56.4811 39.5199C56.4811 38.8296 55.9215 38.2699 55.2311 38.2699Z" fill="#13151A"/>
<path d="M31.9997 20.3814C21.4467 20.3814 12.8613 28.967 12.8613 39.5199C12.8613 50.0728 21.4468 58.6582 31.9997 58.6582C42.5526 58.6582 51.1381 50.0728 51.1381 39.5199C51.1381 28.967 42.5527 20.3814 31.9997 20.3814ZM31.9997 56.1584C22.8252 56.1584 15.3613 48.6944 15.3613 39.52C15.3613 30.3455 22.8253 22.8815 31.9997 22.8815C41.1741 22.8815 48.6381 30.3455 48.6381 39.52C48.6382 48.6944 41.1742 56.1584 31.9997 56.1584Z" fill="#13151A"/>
<path d="M39.5 46.5L36.5834 43.5833M38.6667 38.5833C38.6667 42.4954 35.4954 45.6667 31.5833 45.6667C27.6713 45.6667 24.5 42.4954 24.5 38.5833C24.5 34.6713 27.6713 31.5 31.5833 31.5C35.4954 31.5 38.6667 34.6713 38.6667 38.5833Z" stroke="#A0A8B8" stroke-width="2.5" stroke-linecap="round" stroke-linejoin="round"/>
</svg>
