<svg width="25" height="24" viewBox="0 0 25 24" fill="none" xmlns="http://www.w3.org/2000/svg">
<path d="M22.5 11.5V14.6C22.5 16.8402 22.5 17.9603 22.064 18.816C21.6805 19.5686 21.0686 20.1805 20.316 20.564C19.4603 21 18.3402 21 16.1 21H8.9C6.65979 21 5.53969 21 4.68404 20.564C3.93139 20.1805 3.31947 19.5686 2.93597 18.816C2.5 17.9603 2.5 16.8402 2.5 14.6V9.4C2.5 7.15979 2.5 6.03969 2.93597 5.18404C3.31947 4.43139 3.93139 3.81947 4.68404 3.43597C5.53969 3 6.65979 3 8.9 3H13M19.5 8V2M16.5 5H22.5M16.5 12C16.5 14.2091 14.7091 16 12.5 16C10.2909 16 8.5 14.2091 8.5 12C8.5 9.79086 10.2909 8 12.5 8C14.7091 8 16.5 9.79086 16.5 12Z" stroke="#13151A" stroke-width="1.5" stroke-linecap="round" stroke-linejoin="round"/>
</svg>
