<svg width="32" height="32" viewBox="0 0 32 32" fill="none" xmlns="http://www.w3.org/2000/svg">
<path d="M16.0001 29.3333C23.3639 29.3333 29.3334 23.3638 29.3334 16C29.3334 8.63621 23.3639 2.66667 16.0001 2.66667C8.63628 2.66667 2.66675 8.63621 2.66675 16C2.66675 23.3638 8.63628 29.3333 16.0001 29.3333Z" stroke="white" stroke-width="1.5" stroke-linecap="round" stroke-linejoin="round"/>
<path d="M12.6667 11.9538C12.6667 11.3174 12.6667 10.9992 12.7997 10.8216C12.9156 10.6668 13.093 10.5699 13.2859 10.5561C13.5073 10.5403 13.7749 10.7124 14.3102 11.0565L20.6043 15.1027C21.0689 15.4014 21.3011 15.5507 21.3813 15.7405C21.4514 15.9064 21.4514 16.0936 21.3813 16.2595C21.3011 16.4493 21.0689 16.5986 20.6043 16.8973L14.3102 20.9435C13.7749 21.2876 13.5073 21.4597 13.2859 21.4439C13.093 21.4301 12.9156 21.3332 12.7997 21.1784C12.6667 21.0008 12.6667 20.6826 12.6667 20.0462V11.9538Z" stroke="white" stroke-width="1.5" stroke-linecap="round" stroke-linejoin="round"/>
</svg>
