<svg width="88" height="88" viewBox="0 0 88 88" fill="none" xmlns="http://www.w3.org/2000/svg">
<path fill-rule="evenodd" clip-rule="evenodd" d="M19.7378 53.46C11.1065 51.788 4.5835 44.1833 4.5835 35.068C4.5835 24.728 12.9765 16.335 23.3165 16.335C33.6565 16.335 42.0495 24.728 42.0495 35.068C42.0495 48.8473 37.4075 57.4053 31.9588 62.755C23.6172 70.9463 13.1708 71.6576 13.1708 71.6576C12.1075 71.7346 11.0992 71.1883 10.5785 70.2606C10.0542 69.3366 10.1165 68.189 10.7325 67.3236C10.7325 67.3236 15.6972 60.335 18.7918 55.165C19.1145 54.6223 19.4408 54.0246 19.7378 53.46Z" fill="#383D47" fill-opacity="0.12"/>
<path fill-rule="evenodd" clip-rule="evenodd" d="M61.105 53.46C52.4737 51.788 45.9507 44.1833 45.9507 35.068C45.9507 24.728 54.3437 16.335 64.6837 16.335C75.0237 16.335 83.4167 24.728 83.4167 35.068C83.4167 48.8473 78.7747 57.4053 73.326 62.755C64.9843 70.9463 54.538 71.6576 54.538 71.6576C53.4747 71.7346 52.4664 71.1883 51.9457 70.2606C51.425 69.3366 51.4837 68.189 52.0997 67.3236C52.0997 67.3236 57.0644 60.335 60.159 55.165C60.4817 54.6223 60.808 54.0246 61.105 53.46Z" fill="#383D47" fill-opacity="0.12"/>
</svg>
